<svg width="745" height="688.8" xmlns="http://www.w3.org/2000/svg">
 <style type="text/css">.st0{fill:#FFFFFF;}
	.st1{fill:#4EBA6F;}
	.st2{fill:#EDF0F1;}
	.st3{fill:#E57E25;}
	.st4{fill:#E64C3C;}
	.st5{fill:#3B97D3;}
	.st6{fill:#F0C419;}</style>

 <g>
  <title>background</title>
  <rect x="-1" y="-1" width="747" height="690.8" id="canvas_background" fill="none"/>
 </g>
 <g>
  <title>Layer 1</title>
  <path class="st0" d="m259.2,171.9c0,-3.7 0,-7.4 0,-11.1c0,-4.3 0,-8.5 0.1,-13c0,-6.4 0.1,-13.4 0.1,-22.1c-16,0 -32.5,0.1 -49.1,0.3c0,3.4 0,6.8 0,10.2c0.1,7.8 0.3,13.9 0.5,20.9c0.1,4.2 0.3,8.7 0.4,14.1c12.5,0.1 25,0.3 37.2,0.4c4.2,0.2 7.7,0.2 10.8,0.3z" id="svg_148"/>
  <path class="st0" d="m259.5,113.5c0,-10 0,-20.1 0,-30c-10.6,-0.3 -22.6,-0.5 -31.6,-0.5c-5.3,0 -9.6,0.1 -11.9,0.3c-0.9,0.1 -2.2,0.3 -3.1,1.1c-0.5,0.4 -0.8,1 -1,1.5c-0.1,0.4 -0.2,0.7 -0.2,1.1l0,0.1c-0.7,11.7 -1.2,23.3 -1.3,34.8c16.6,-0.2 33,-0.3 49,-0.2c0.1,-2.5 0.1,-5.3 0.1,-8.2z" id="svg_149"/>
  <path class="st0" d="m263.5,114.5c0,2.9 0,5.6 0,8.2c4.5,0 8.9,0 13.3,0c4.6,0 9.1,0 14,0.1c5.4,0 11.2,0.1 17.9,0.1c-0.1,-1.8 -0.1,-3.8 -0.2,-6c-0.2,-10.6 -0.2,-21.3 0.2,-31.7c-5.3,0.1 -15.8,0.2 -25.4,-0.1c-0.2,0 -8.8,-0.3 -19.8,-0.6c0,10 0,20 0,30z" id="svg_150"/>
  <path class="st0" d="m312.5,116.9c0,2.3 0.1,4.3 0.2,6.1c4.5,0 9.4,0 14.9,0c10.9,0 21.9,0 32.7,0c-0.2,-11.6 -0.6,-23.3 -1.1,-34.9l0,-0.1c0,-1 -0.4,-1.9 -1.2,-2.6c-0.9,-0.8 -2.2,-1.1 -3.1,-1.2c-10.2,-1 -31,0.4 -31.2,0.4c-2.5,0.2 -5.4,0.3 -11.1,0.4c-0.3,10.6 -0.3,21.2 -0.1,31.9z" id="svg_151"/>
  <path class="st0" d="m248.4,176.7c-12.1,-0.2 -24.6,-0.3 -37,-0.4c0.1,2.5 0.1,5.1 0.2,8c0.2,11.7 0.3,23.6 0.2,35.1c0,1 0.4,1.9 1.2,2.6c1.1,1.1 2.5,1.1 2.9,1.1l0.1,0c14.4,0.4 29,0.8 43.5,0.9c-0.2,-16 -0.3,-31.8 -0.3,-47.2c-3.1,0 -6.6,-0.1 -10.8,-0.1z" id="svg_152"/>
  <path class="st0" d="m327.5,126c-5.4,0 -10.3,0 -14.8,0c0.1,2.3 0.2,4.3 0.3,6.2c0.2,4.8 0.5,9.3 0.6,17.2c0.1,7.8 0,12.1 -0.2,21.7c0,0.1 0,0.2 0,0.3c3.2,-0.1 6.8,-0.2 11.5,-0.3c11.9,-0.2 23.9,-0.1 35.5,0.2c0.1,-9.4 0.1,-18.8 0.1,-28.1c0,-5.7 -0.1,-11.4 -0.2,-17.1c-10.8,-0.1 -21.8,-0.1 -32.8,-0.1z" id="svg_153"/>
  <path class="st6" d="m289,173.2c8.4,-0.1 13.2,-0.3 18.3,-0.6c0.7,0 1.4,-0.1 2.1,-0.1c0,-0.2 0,-0.3 0,-0.5c0.2,-9.5 0.3,-13.9 0.2,-21.6c-0.1,-7.8 -0.3,-12.3 -0.6,-17.1c-0.1,-2 -0.2,-4.1 -0.3,-6.4c-6.8,0 -12.6,-0.1 -18.1,-0.1c-4.9,0 -9.4,-0.1 -14,-0.1c-4.4,0 -8.8,0 -13.3,0c0,8.7 -0.1,15.7 -0.1,22.1c0,4.5 -0.1,8.7 -0.1,13c0,3.7 0,7.4 0,11.1c0.9,0 1.8,0 2.6,0c10.4,0.3 15,0.4 23.3,0.3z" id="svg_154"/>
  <path class="st0" d="m325,176c-4.8,0.1 -8.5,0.2 -11.6,0.3c-0.1,3.3 -0.1,7.2 -0.2,11.9c-0.2,11.8 -0.3,23.8 -0.5,35.9c14.1,-0.2 28.3,-0.5 42.3,-0.9l0.1,0c1.1,0 2.2,-0.4 2.9,-1.1c1.1,-1 1.2,-2.3 1.2,-2.6l0,-0.1c0.6,-14.3 1,-28.7 1.2,-43.1c-11.6,-0.5 -23.5,-0.5 -35.4,-0.3z" id="svg_155"/>
  <path class="st0" d="m309.2,188.1c0.1,-4.6 0.1,-8.4 0.2,-11.7c-0.6,0 -1.3,0.1 -1.9,0.1c-5.1,0.2 -10,0.5 -18.5,0.6c-8.3,0.1 -13,0 -23.3,-0.2c-0.8,0 -1.7,0 -2.5,0c0,15.4 0.1,31.2 0.3,47.2c6.1,0.1 12.2,0.1 18.3,0.1c9,0 18,0 27,-0.1c0.1,-12.1 0.2,-24.2 0.4,-36z" id="svg_156"/>
  <path d="m364,144.1c-0.1,-18.6 -0.6,-37.5 -1.4,-56.1c0,-1.9 -0.8,-3.8 -2.3,-5.1c-1.8,-1.7 -4.3,-2 -5.1,-2.1c-10.5,-1.1 -30.9,0.4 -31.8,0.4c-2.5,0.2 -5.5,0.3 -11.4,0.4c-0.2,0 -15.3,0.4 -28.7,0c-2.3,-0.1 -56.8,-1.8 -67.6,-0.8c-0.8,0.1 -3.3,0.3 -5.2,2.1c-0.9,0.8 -1.5,1.9 -1.9,3c-0.2,0.7 -0.3,1.4 -0.3,2.1c-1.1,16.5 -1.5,33.1 -1.4,49.2c0.1,7.9 0.3,14 0.5,21c0.2,6.9 0.5,14.7 0.7,26.1c0.2,11.7 0.3,23.5 0.2,35.1c0,2 0.8,3.8 2.3,5.2c2,1.9 4.3,2.1 5.3,2.1c21.8,0.7 44,1 65.8,1.1c1.2,0 2.5,0 3.7,0c23.1,0 46.6,-0.4 69.7,-1.1c2,0 3.9,-0.7 5.3,-2.1c2,-1.9 2.2,-4.2 2.3,-5.1c1,-25.1 1.5,-50.4 1.3,-75.4zm-3.4,0c0.1,9.3 0,18.7 -0.1,28.1c-11.7,-0.4 -23.6,-0.4 -35.5,-0.2c-4.7,0.1 -8.3,0.2 -11.5,0.3c0,-0.1 0,-0.2 0,-0.3c0.2,-9.6 0.3,-13.9 0.2,-21.7c-0.1,-7.9 -0.3,-12.4 -0.6,-17.2c-0.1,-2 -0.2,-4 -0.3,-6.2c4.5,0 9.3,0 14.8,0c11,0 22,0 32.8,0c0.1,5.8 0.1,11.5 0.2,17.2zm-36.9,-59.4c0.2,0 21,-1.5 31.2,-0.4c0.9,0.1 2.2,0.3 3.1,1.2c0.8,0.7 1.2,1.6 1.2,2.6l0,0.1c0.5,11.6 0.9,23.2 1.1,34.9c-10.8,0 -21.8,0 -32.7,0c-5.5,0 -10.4,0 -14.9,0c-0.1,-1.8 -0.1,-3.8 -0.2,-6.1c-0.2,-10.6 -0.1,-21.3 0.2,-31.7c5.6,-0.3 8.5,-0.4 11,-0.6zm-60.5,77.1c0,-4.3 0,-8.5 0.1,-13c0,-6.4 0.1,-13.4 0.1,-22.1c4.5,0 8.9,0 13.3,0c4.6,0 9.1,0 14,0.1c5.4,0 11.2,0.1 18.1,0.1c0.1,2.3 0.2,4.4 0.3,6.4c0.2,4.8 0.4,9.3 0.6,17.1c0.1,7.7 0,12.1 -0.2,21.6c0,0.2 0,0.3 0,0.5c-0.7,0 -1.4,0.1 -2.1,0.1c-5.1,0.2 -9.9,0.4 -18.3,0.6c-8.3,0.1 -13,0 -23.2,-0.2c-0.8,0 -1.7,0 -2.6,0c-0.1,-3.8 -0.1,-7.5 -0.1,-11.2zm20.1,-76.7c9.6,0.3 20.1,0.2 25.4,0.1c-0.3,10.4 -0.4,21.1 -0.2,31.7c0,2.2 0.1,4.2 0.2,6c-6.8,0 -12.5,-0.1 -17.9,-0.1c-4.9,0 -9.4,-0.1 -14,-0.1c-4.4,0 -8.8,0 -13.3,0c0,-2.6 0,-5.3 0,-8.2c0,-10 0,-20.1 0,-30c11,0.4 19.5,0.6 19.8,0.6zm-71.5,3.1l0,-0.1c0,-0.4 0.1,-0.7 0.2,-1.1c0.2,-0.6 0.5,-1.1 1,-1.5c0.9,-0.9 2.2,-1.1 3.1,-1.1c2.2,-0.2 6.5,-0.3 11.9,-0.3c9,0 21,0.2 31.6,0.5c0,9.9 0,20 0,30c0,2.9 0,5.6 0,8.2c-16,0 -32.5,0.1 -49,0.2c0,-11.5 0.4,-23.2 1.2,-34.8zm-0.9,69.9c-0.2,-7 -0.4,-13.1 -0.5,-20.9c0,-3.4 0,-6.8 0,-10.2c16.6,-0.2 33,-0.3 49.1,-0.3c0,8.7 -0.1,15.7 -0.1,22.1c0,4.5 -0.1,8.7 -0.1,13c0,3.7 0,7.4 0,11.1c-3.1,-0.1 -6.6,-0.1 -10.8,-0.2c-12.2,-0.2 -24.7,-0.3 -37.2,-0.4c-0.1,-5.5 -0.3,-10 -0.4,-14.2zm5.1,65.1l0,0c-0.5,0 -1.9,-0.1 -3,-1.1c-0.8,-0.7 -1.2,-1.6 -1.2,-2.6c0,-11.6 0,-23.4 -0.2,-35.1c0,-2.9 -0.1,-5.5 -0.2,-8c12.4,0.1 24.9,0.3 37,0.4c4.1,0.1 7.7,0.1 10.8,0.2c0,15.4 0.1,31.3 0.3,47.2c-14.5,-0.3 -29.1,-0.6 -43.5,-1zm65.7,1c-6.1,0 -12.2,0 -18.3,-0.1c-0.2,-16 -0.3,-31.8 -0.3,-47.2c0.9,0 1.7,0 2.5,0c10.3,0.2 15,0.3 23.3,0.2c8.5,-0.1 13.3,-0.3 18.5,-0.6c0.6,0 1.2,-0.1 1.9,-0.1c-0.1,3.3 -0.1,7.1 -0.2,11.7c-0.2,11.8 -0.3,23.9 -0.5,36c-8.9,0.1 -17.9,0.2 -26.9,0.1zm77.5,-4.9l0,0c0,0.4 -0.1,1.7 -1.2,2.7c-0.8,0.7 -1.8,1.1 -2.9,1.1l-0.1,0c-14,0.4 -28.2,0.7 -42.3,0.9c0.1,-12 0.3,-24.1 0.5,-35.9c0.1,-4.7 0.2,-8.6 0.2,-11.9c3.2,-0.1 6.9,-0.2 11.6,-0.3c11.9,-0.2 23.8,-0.1 35.4,0.2c-0.2,14.5 -0.6,28.9 -1.2,43.2z" id="svg_157"/>
  <g id="svg_118">
   <path class="st0" d="m434.2,403.9c0,-3.7 0,-7.4 0,-11.1c0,-4.3 0,-8.5 0.1,-13c0,-6.4 0.1,-13.4 0.1,-22.1c-16,0 -32.5,0.1 -49.1,0.3c0,3.4 0,6.8 0,10.2c0.1,7.8 0.3,13.9 0.5,20.9c0.1,4.2 0.3,8.7 0.4,14.1c12.5,0.1 25,0.3 37.2,0.4c4.1,0.2 7.7,0.2 10.8,0.3z" id="svg_119"/>
   <path class="st0" d="m434.4,345.5c0,-10 0,-20.1 0,-30c-10.6,-0.3 -22.6,-0.5 -31.6,-0.5c-5.3,0 -9.6,0.1 -11.9,0.3c-0.9,0.1 -2.2,0.3 -3.1,1.1c-0.5,0.4 -0.8,1 -1,1.5c-0.1,0.4 -0.2,0.7 -0.2,1.1l0,0.1c-0.7,11.7 -1.2,23.3 -1.3,34.8c16.6,-0.2 33,-0.3 49,-0.2c0.1,-2.5 0.1,-5.3 0.1,-8.2z" id="svg_120"/>
   <path class="st0" d="m438.4,345.5c0,2.9 0,5.6 0,8.2c4.5,0 8.9,0 13.3,0c4.6,0 9.1,0 14,0.1c5.4,0 11.2,0.1 17.9,0.1c-0.1,-1.8 -0.1,-3.8 -0.2,-6c-0.2,-10.6 -0.2,-21.3 0.2,-31.7c-5.3,0.1 -15.8,0.2 -25.4,-0.1c-0.2,0 -8.8,-0.3 -19.8,-0.6c0,10 0,20 0,30z" id="svg_121"/>
   <path class="st0" d="m487.4,347.9c0,2.3 0.1,4.3 0.2,6.1c4.5,0 9.4,0 14.9,0c10.9,0 21.9,0 32.7,0c-0.2,-11.6 -0.6,-23.3 -1.1,-34.9l0,-0.1c0,-1 -0.4,-1.9 -1.2,-2.6c-0.9,-0.8 -2.2,-1.1 -3.1,-1.2c-10.2,-1 -31,0.4 -31.2,0.4c-2.5,0.2 -5.4,0.3 -11.1,0.4c-0.3,10.6 -0.3,21.2 -0.1,31.9z" id="svg_122"/>
   <path class="st0" d="m423.3,407.7c-12.1,-0.2 -24.6,-0.3 -37,-0.4c0.1,2.5 0.1,5.1 0.2,8c0.2,11.7 0.3,23.6 0.2,35.1c0,1 0.4,1.9 1.2,2.6c1.1,1.1 2.5,1.1 2.9,1.1l0.1,0c14.4,0.4 29,0.8 43.5,0.9c-0.2,-16 -0.3,-31.8 -0.3,-47.2c-3.1,0 -6.6,-0.1 -10.8,-0.1z" id="svg_123"/>
   <path class="st0" d="m502.4,358c-5.4,0 -10.3,0 -14.8,0c0.1,2.3 0.2,4.3 0.3,6.2c0.2,4.8 0.5,9.3 0.6,17.2c0.1,7.8 0,12.1 -0.2,21.7c0,0.1 0,0.2 0,0.3c3.2,-0.1 6.8,-0.2 11.5,-0.3c11.9,-0.2 23.9,-0.1 35.5,0.2c0.1,-9.4 0.1,-18.8 0.1,-28.1c0,-5.7 -0.1,-11.4 -0.2,-17.1c-10.8,-0.1 -21.8,-0.1 -32.8,-0.1z" id="svg_124"/>
   <path class="st5" d="m463.9,404.2c8.4,-0.1 13.2,-0.3 18.3,-0.6c0.7,0 1.4,-0.1 2.1,-0.1c0,-0.2 0,-0.3 0,-0.5c0.2,-9.5 0.3,-13.9 0.2,-21.6c-0.1,-7.8 -0.3,-12.3 -0.6,-17.1c-0.1,-2 -0.2,-4.1 -0.3,-6.4c-6.8,0 -12.6,-0.1 -18.1,-0.1c-4.9,0 -9.4,-0.1 -14,-0.1c-4.4,0 -8.8,0 -13.3,0c0,8.7 -0.1,15.7 -0.1,22.1c0,4.5 -0.1,8.7 -0.1,13c0,3.7 0,7.4 0,11.1c0.9,0 1.8,0 2.6,0c10.4,0.3 15,0.4 23.3,0.3z" id="svg_125"/>
   <path class="st0" d="m499.9,407c-4.8,0.1 -8.5,0.2 -11.6,0.3c-0.1,3.3 -0.1,7.2 -0.2,11.9c-0.2,11.8 -0.3,23.8 -0.5,35.9c14.1,-0.2 28.3,-0.5 42.3,-0.9l0.1,0c1.1,0 2.2,-0.4 2.9,-1.1c1.1,-1 1.2,-2.3 1.2,-2.6l0,-0.1c0.6,-14.3 1,-28.7 1.2,-43.1c-11.6,-0.5 -23.5,-0.5 -35.4,-0.3z" id="svg_126"/>
   <path class="st0" d="m484.1,419.1c0.1,-4.6 0.1,-8.4 0.2,-11.7c-0.6,0 -1.3,0.1 -1.9,0.1c-5.1,0.2 -10,0.5 -18.5,0.6c-8.3,0.1 -13,0 -23.3,-0.2c-0.8,0 -1.7,0 -2.5,0c0,15.4 0.1,31.2 0.3,47.2c6.1,0.1 12.2,0.1 18.3,0.1c9,0 18,0 27,-0.1c0.1,-12.1 0.2,-24.2 0.4,-36z" id="svg_127"/>
   <path d="m538.9,375.1c-0.1,-18.6 -0.6,-37.5 -1.4,-56.1c0,-1.9 -0.8,-3.8 -2.3,-5.1c-1.8,-1.7 -4.3,-2 -5.1,-2.1c-10.5,-1.1 -30.9,0.4 -31.8,0.4c-2.5,0.2 -5.5,0.3 -11.4,0.4c-0.2,0 -15.3,0.4 -28.7,0c-2.3,-0.1 -56.8,-1.8 -67.6,-0.8c-0.8,0.1 -3.3,0.3 -5.2,2.1c-0.9,0.8 -1.5,1.9 -1.9,3c-0.2,0.7 -0.3,1.4 -0.3,2.1c-1.1,16.5 -1.5,33.1 -1.4,49.2c0.1,7.9 0.3,14 0.5,21c0.2,6.9 0.5,14.7 0.7,26.1c0.2,11.7 0.3,23.5 0.2,35.1c0,2 0.8,3.8 2.3,5.2c2,1.9 4.3,2.1 5.3,2.1c21.8,0.7 44,1 65.8,1.1c1.2,0 2.5,0 3.7,0c23.1,0 46.6,-0.4 69.7,-1.1c2,0 3.9,-0.7 5.3,-2.1c2,-1.9 2.2,-4.2 2.3,-5.1c1,-25.1 1.5,-50.4 1.3,-75.4zm-3.4,0c0.1,9.3 0,18.7 -0.1,28.1c-11.7,-0.4 -23.6,-0.4 -35.5,-0.2c-4.7,0.1 -8.3,0.2 -11.5,0.3c0,-0.1 0,-0.2 0,-0.3c0.2,-9.6 0.3,-13.9 0.2,-21.7c-0.1,-7.9 -0.3,-12.4 -0.6,-17.2c-0.1,-2 -0.2,-4 -0.3,-6.2c4.5,0 9.3,0 14.8,0c11,0 22,0 32.8,0c0.1,5.8 0.1,11.5 0.2,17.2zm-36.9,-59.4c0.2,0 21,-1.5 31.2,-0.4c0.9,0.1 2.2,0.3 3.1,1.2c0.8,0.7 1.2,1.6 1.2,2.6l0,0.1c0.5,11.6 0.9,23.2 1.1,34.9c-10.8,0 -21.8,0 -32.7,0c-5.5,0 -10.4,0 -14.9,0c-0.1,-1.8 -0.1,-3.8 -0.2,-6.1c-0.2,-10.6 -0.1,-21.3 0.2,-31.7c5.6,-0.3 8.5,-0.4 11,-0.6zm-60.5,77.1c0,-4.3 0,-8.5 0.1,-13c0,-6.4 0.1,-13.4 0.1,-22.1c4.5,0 8.9,0 13.3,0c4.6,0 9.1,0 14,0.1c5.4,0 11.2,0.1 18.1,0.1c0.1,2.3 0.2,4.4 0.3,6.4c0.2,4.8 0.4,9.3 0.6,17.1c0.1,7.7 0,12.1 -0.2,21.6c0,0.2 0,0.3 0,0.5c-0.7,0 -1.4,0.1 -2.1,0.1c-5.1,0.2 -9.9,0.4 -18.3,0.6c-8.3,0.1 -13,0 -23.2,-0.2c-0.8,0 -1.7,0 -2.6,0c-0.1,-3.8 -0.1,-7.5 -0.1,-11.2zm20.1,-76.7c9.6,0.3 20.1,0.2 25.4,0.1c-0.3,10.4 -0.4,21.1 -0.2,31.7c0,2.2 0.1,4.2 0.2,6c-6.8,0 -12.5,-0.1 -17.9,-0.1c-4.9,0 -9.4,-0.1 -14,-0.1c-4.4,0 -8.8,0 -13.3,0c0,-2.6 0,-5.3 0,-8.2c0,-10 0,-20.1 0,-30c11,0.4 19.5,0.6 19.8,0.6zm-71.5,3.1l0,-0.1c0,-0.4 0.1,-0.7 0.2,-1.1c0.2,-0.6 0.5,-1.1 1,-1.5c0.9,-0.9 2.2,-1.1 3.1,-1.1c2.2,-0.2 6.5,-0.3 11.9,-0.3c9,0 21,0.2 31.6,0.5c0,9.9 0,20 0,30c0,2.9 0,5.6 0,8.2c-16,0 -32.5,0.1 -49,0.2c0,-11.5 0.5,-23.2 1.2,-34.8zm-0.9,69.9c-0.2,-7 -0.4,-13.1 -0.5,-20.9c0,-3.4 0,-6.8 0,-10.2c16.6,-0.2 33,-0.3 49.1,-0.3c0,8.7 -0.1,15.7 -0.1,22.1c0,4.5 -0.1,8.7 -0.1,13c0,3.7 0,7.4 0,11.1c-3.1,-0.1 -6.6,-0.1 -10.8,-0.2c-12.2,-0.2 -24.7,-0.3 -37.2,-0.4c-0.1,-5.5 -0.3,-10 -0.4,-14.2zm5.1,65.1l0,0c-0.5,0 -1.9,-0.1 -3,-1.1c-0.8,-0.7 -1.2,-1.6 -1.2,-2.6c0,-11.6 0,-23.4 -0.2,-35.1c0,-2.9 -0.1,-5.5 -0.2,-8c12.4,0.1 24.9,0.3 37,0.4c4.1,0.1 7.7,0.1 10.8,0.2c0,15.4 0.1,31.3 0.3,47.2c-14.5,-0.3 -29.1,-0.6 -43.5,-1zm65.7,1c-6.1,0 -12.2,0 -18.3,-0.1c-0.2,-16 -0.3,-31.8 -0.3,-47.2c0.9,0 1.7,0 2.5,0c10.3,0.2 15,0.3 23.3,0.2c8.5,-0.1 13.3,-0.3 18.5,-0.6c0.6,0 1.2,-0.1 1.9,-0.1c-0.1,3.3 -0.1,7.1 -0.2,11.7c-0.2,11.8 -0.3,23.9 -0.5,36c-8.9,0.1 -17.9,0.2 -26.9,0.1zm77.5,-4.9l0,0c0,0.4 -0.1,1.7 -1.2,2.7c-0.8,0.7 -1.8,1.1 -2.9,1.1l-0.1,0c-14,0.4 -28.2,0.7 -42.3,0.9c0.1,-12 0.3,-24.1 0.5,-35.9c0.1,-4.7 0.2,-8.6 0.2,-11.9c3.2,-0.1 6.9,-0.2 11.6,-0.3c11.9,-0.2 23.8,-0.1 35.4,0.2c-0.2,14.5 -0.6,28.9 -1.2,43.2z" id="svg_128"/>
  </g>
  <g id="svg_60">
   <path class="st0" d="m259.3,404c0,-3.7 0,-7.4 0,-11.1c0,-4.3 0,-8.5 0.1,-13c0,-6.4 0.1,-13.4 0.1,-22.1c-16,0 -32.5,0.1 -49.1,0.3c0,3.4 0,6.8 0,10.2c0.1,7.8 0.3,13.9 0.5,20.9c0.1,4.2 0.3,8.7 0.4,14.1c12.5,0.1 25,0.3 37.2,0.4c4.2,0.2 7.7,0.3 10.8,0.3z" id="svg_61"/>
   <path class="st0" d="m259.6,345.6c0,-10 0,-20.1 0,-30c-10.6,-0.3 -22.6,-0.5 -31.6,-0.5c-5.3,0 -9.6,0.1 -11.9,0.3c-0.9,0.1 -2.2,0.3 -3.1,1.1c-0.5,0.4 -0.8,1 -1,1.5c-0.1,0.4 -0.2,0.7 -0.2,1.1l0,0.1c-0.7,11.7 -1.2,23.3 -1.3,34.8c16.6,-0.2 33,-0.3 49,-0.2c0.1,-2.5 0.1,-5.3 0.1,-8.2z" id="svg_62"/>
   <path class="st0" d="m263.6,345.6c0,2.9 0,5.6 0,8.2c4.5,0 8.9,0 13.3,0c4.6,0 9.1,0 14,0.1c5.4,0 11.2,0.1 17.9,0.1c-0.1,-1.8 -0.1,-3.8 -0.2,-6c-0.2,-10.6 -0.2,-21.3 0.2,-31.7c-5.3,0.1 -15.8,0.2 -25.4,-0.1c-0.2,0 -8.8,-0.3 -19.8,-0.6c0,10 0,20 0,30z" id="svg_63"/>
   <path class="st0" d="m312.6,348c0,2.3 0.1,4.3 0.2,6.1c4.5,0 9.4,0 14.9,0c10.9,0 21.9,0 32.7,0c-0.2,-11.6 -0.6,-23.3 -1.1,-34.9l0,-0.1c0,-1 -0.4,-1.9 -1.2,-2.6c-0.9,-0.8 -2.2,-1.1 -3.1,-1.2c-10.2,-1 -31,0.4 -31.2,0.4c-2.5,0.2 -5.4,0.3 -11.1,0.4c-0.3,10.6 -0.3,21.2 -0.1,31.9z" id="svg_64"/>
   <path class="st0" d="m248.5,407.8c-12.1,-0.2 -24.6,-0.3 -37,-0.4c0.1,2.5 0.1,5.1 0.2,8c0.2,11.7 0.3,23.6 0.2,35.1c0,1 0.4,1.9 1.2,2.6c1.1,1.1 2.5,1.1 2.9,1.1l0.1,0c14.4,0.4 29,0.8 43.5,0.9c-0.2,-16 -0.3,-31.8 -0.3,-47.2c-3.1,0 -6.6,-0.1 -10.8,-0.1z" id="svg_65"/>
   <path class="st0" d="m327.6,358.1c-5.4,0 -10.3,0 -14.8,0c0.1,2.3 0.2,4.3 0.3,6.2c0.2,4.8 0.5,9.3 0.6,17.2c0.1,7.8 0,12.1 -0.2,21.7c0,0.1 0,0.2 0,0.3c3.2,-0.1 6.8,-0.2 11.5,-0.3c11.9,-0.2 23.9,-0.1 35.5,0.2c0.1,-9.4 0.1,-18.8 0.1,-28.1c0,-5.7 -0.1,-11.4 -0.2,-17.1c-10.8,-0.1 -21.8,-0.1 -32.8,-0.1z" id="svg_66"/>
   <path class="st3" d="m289.1,404.3c8.4,-0.1 13.2,-0.3 18.3,-0.6c0.7,0 1.4,-0.1 2.1,-0.1c0,-0.2 0,-0.3 0,-0.5c0.2,-9.5 0.3,-13.9 0.2,-21.6c-0.1,-7.8 -0.3,-12.3 -0.6,-17.1c-0.1,-2 -0.2,-4.1 -0.3,-6.4c-6.8,0 -12.6,-0.1 -18.1,-0.1c-4.9,0 -9.4,-0.1 -14,-0.1c-4.4,0 -8.8,0 -13.3,0c0,8.7 -0.1,15.7 -0.1,22.1c0,4.5 -0.1,8.7 -0.1,13c0,3.7 0,7.4 0,11.1c0.9,0 1.8,0 2.6,0c10.4,0.3 15,0.4 23.3,0.3z" id="svg_67"/>
   <path class="st0" d="m325.1,407.1c-4.8,0.1 -8.5,0.2 -11.6,0.3c-0.1,3.3 -0.1,7.2 -0.2,11.9c-0.2,11.8 -0.3,23.8 -0.5,35.9c14.1,-0.2 28.3,-0.5 42.3,-0.9l0.1,0c1.1,0 2.2,-0.4 2.9,-1.1c1.1,-1 1.2,-2.3 1.2,-2.6l0,-0.1c0.6,-14.3 1,-28.7 1.2,-43.1c-11.6,-0.4 -23.5,-0.5 -35.4,-0.3z" id="svg_68"/>
   <path class="st0" d="m309.3,419.3c0.1,-4.6 0.1,-8.4 0.2,-11.7c-0.6,0 -1.3,0.1 -1.9,0.1c-5.1,0.2 -10,0.5 -18.5,0.6c-8.3,0.1 -13,0 -23.3,-0.2c-0.8,0 -1.7,0 -2.5,0c0,15.4 0.1,31.2 0.3,47.2c6.1,0.1 12.2,0.1 18.3,0.1c9,0 18,0 27,-0.1c0.1,-12.1 0.2,-24.2 0.4,-36z" id="svg_69"/>
   <path d="m364.1,375.2c-0.1,-18.6 -0.6,-37.5 -1.4,-56.1c0,-1.9 -0.8,-3.8 -2.3,-5.1c-1.8,-1.7 -4.3,-2 -5.1,-2.1c-10.5,-1.1 -30.9,0.4 -31.8,0.4c-2.5,0.2 -5.5,0.3 -11.4,0.4c-0.2,0 -15.3,0.4 -28.7,0c-2.3,-0.1 -56.8,-1.8 -67.6,-0.8c-0.8,0.1 -3.3,0.3 -5.2,2.1c-0.9,0.8 -1.5,1.9 -1.9,3c-0.2,0.7 -0.3,1.4 -0.3,2.1c-1.1,16.5 -1.5,33.1 -1.4,49.2c0.1,7.9 0.3,14 0.5,21c0.2,6.9 0.5,14.7 0.7,26.1c0.2,11.7 0.3,23.5 0.2,35.1c0,2 0.8,3.8 2.3,5.2c2,1.9 4.3,2.1 5.3,2.1c21.8,0.7 44,1 65.8,1.1c1.2,0 2.5,0 3.7,0c23.1,0 46.6,-0.4 69.7,-1.1c2,0 3.9,-0.7 5.3,-2.1c2,-1.9 2.2,-4.2 2.3,-5.1c1,-25 1.5,-50.4 1.3,-75.4zm-3.4,0c0.1,9.3 0,18.7 -0.1,28.1c-11.7,-0.4 -23.6,-0.4 -35.5,-0.2c-4.7,0.1 -8.3,0.2 -11.5,0.3c0,-0.1 0,-0.2 0,-0.3c0.2,-9.6 0.3,-13.9 0.2,-21.7c-0.1,-7.9 -0.3,-12.4 -0.6,-17.2c-0.1,-2 -0.2,-4 -0.3,-6.2c4.5,0 9.3,0 14.8,0c11,0 22,0 32.8,0c0.1,5.8 0.1,11.5 0.2,17.2zm-36.9,-59.4c0.2,0 21,-1.5 31.2,-0.4c0.9,0.1 2.2,0.3 3.1,1.2c0.8,0.7 1.2,1.6 1.2,2.6l0,0.1c0.5,11.6 0.9,23.2 1.1,34.9c-10.8,0 -21.8,0 -32.7,0c-5.5,0 -10.4,0 -14.9,0c-0.1,-1.8 -0.1,-3.8 -0.2,-6.1c-0.2,-10.6 -0.1,-21.3 0.2,-31.7c5.6,-0.3 8.5,-0.4 11,-0.6zm-60.5,77.1c0,-4.3 0,-8.5 0.1,-13c0,-6.4 0.1,-13.4 0.1,-22.1c4.5,0 8.9,0 13.3,0c4.6,0 9.1,0 14,0.1c5.4,0 11.2,0.1 18.1,0.1c0.1,2.3 0.2,4.4 0.3,6.4c0.2,4.8 0.4,9.3 0.6,17.1c0.1,7.7 0,12.1 -0.2,21.6c0,0.2 0,0.3 0,0.5c-0.7,0 -1.4,0.1 -2.1,0.1c-5.1,0.2 -9.9,0.4 -18.3,0.6c-8.3,0.1 -13,0 -23.2,-0.2c-0.8,0 -1.7,0 -2.6,0c-0.1,-3.8 -0.1,-7.5 -0.1,-11.2zm20.1,-76.6c9.6,0.3 20.1,0.2 25.4,0.1c-0.3,10.4 -0.4,21.1 -0.2,31.7c0,2.2 0.1,4.2 0.2,6c-6.8,0 -12.5,-0.1 -17.9,-0.1c-4.9,0 -9.4,-0.1 -14,-0.1c-4.4,0 -8.8,0 -13.3,0c0,-2.6 0,-5.3 0,-8.2c0,-10 0,-20.1 0,-30c11,0.3 19.5,0.5 19.8,0.6zm-71.5,3l0,-0.1c0,-0.4 0.1,-0.7 0.2,-1.1c0.2,-0.6 0.5,-1.1 1,-1.5c0.9,-0.9 2.2,-1.1 3.1,-1.1c2.2,-0.2 6.5,-0.3 11.9,-0.3c9,0 21,0.2 31.6,0.5c0,9.9 0,20 0,30c0,2.9 0,5.6 0,8.2c-16,0 -32.5,0.1 -49,0.2c0,-11.5 0.4,-23.2 1.2,-34.8zm-0.9,69.9c-0.2,-7 -0.4,-13.1 -0.5,-20.9c0,-3.4 0,-6.8 0,-10.2c16.6,-0.2 33,-0.3 49.1,-0.3c0,8.7 -0.1,15.7 -0.1,22.1c0,4.5 -0.1,8.7 -0.1,13c0,3.7 0,7.4 0,11.1c-3.1,-0.1 -6.6,-0.1 -10.8,-0.2c-12.2,-0.2 -24.7,-0.3 -37.2,-0.4c-0.1,-5.4 -0.3,-10 -0.4,-14.2zm5.1,65.1l0,0c-0.5,0 -1.9,-0.1 -3,-1.1c-0.8,-0.7 -1.2,-1.6 -1.2,-2.6c0,-11.6 0,-23.4 -0.2,-35.1c0,-2.9 -0.1,-5.5 -0.2,-8c12.4,0.1 24.9,0.3 37,0.4c4.1,0.1 7.7,0.1 10.8,0.2c0,15.4 0.1,31.3 0.3,47.2c-14.5,-0.3 -29.1,-0.6 -43.5,-1zm65.7,1c-6.1,0 -12.2,0 -18.3,-0.1c-0.2,-16 -0.3,-31.8 -0.3,-47.2c0.9,0 1.7,0 2.5,0c10.3,0.2 15,0.3 23.3,0.2c8.5,-0.1 13.3,-0.3 18.5,-0.6c0.6,0 1.2,-0.1 1.9,-0.1c-0.1,3.3 -0.1,7.1 -0.2,11.7c-0.2,11.8 -0.3,23.9 -0.5,36c-8.9,0.1 -17.9,0.2 -26.9,0.1zm77.5,-4.9l0,0c0,0.4 -0.1,1.7 -1.2,2.7c-0.8,0.7 -1.8,1.1 -2.9,1.1l-0.1,0c-14,0.4 -28.2,0.7 -42.3,0.9c0.1,-12 0.3,-24.1 0.5,-35.9c0.1,-4.7 0.2,-8.6 0.2,-11.9c3.2,-0.1 6.9,-0.2 11.6,-0.3c11.9,-0.2 23.8,-0.1 35.4,0.2c-0.2,14.5 -0.6,28.9 -1.2,43.2z" id="svg_70"/>
  </g>
  <g id="svg_2">
   <path class="st0" d="m82.6,405.7c0,-3.7 0,-7.4 0,-11.1c0,-4.3 0,-8.5 0.1,-13c0,-6.4 0.1,-13.4 0.1,-22.1c-16,0 -32.5,0.1 -49.1,0.3c0,3.4 0,6.8 0,10.2c0.1,7.8 0.3,13.9 0.5,20.9c0.1,4.2 0.3,8.7 0.4,14.1c12.5,0.1 25,0.3 37.2,0.4c4.2,0.2 7.7,0.3 10.8,0.3z" id="svg_3"/>
   <path class="st0" d="m82.9,347.3c0,-10 0,-20.1 0,-30c-10.6,-0.3 -22.6,-0.5 -31.6,-0.5c-5.3,0 -9.6,0.1 -11.9,0.3c-0.9,0.1 -2.2,0.3 -3.1,1.1c-0.5,0.4 -0.8,1 -1,1.5c-0.1,0.4 -0.2,0.7 -0.2,1.1l0,0.1c-0.7,11.7 -1.2,23.3 -1.3,34.8c16.6,-0.2 33,-0.3 49,-0.2c0.1,-2.5 0.1,-5.2 0.1,-8.2z" id="svg_4"/>
   <path class="st0" d="m86.8,347.4c0,2.9 0,5.6 0,8.2c4.5,0 8.9,0 13.3,0c4.6,0 9.1,0 14,0.1c5.4,0 11.2,0.1 17.9,0.1c-0.1,-1.8 -0.1,-3.8 -0.2,-6c-0.2,-10.6 -0.2,-21.3 0.2,-31.7c-5.3,0.1 -15.8,0.2 -25.4,-0.1c-0.2,0 -8.8,-0.3 -19.8,-0.6c0.1,9.9 0.1,20 0,30z" id="svg_5"/>
   <path class="st0" d="m135.8,349.7c0,2.3 0.1,4.3 0.2,6.1c4.5,0 9.4,0 14.9,0c10.9,0 21.9,0 32.7,0c-0.2,-11.6 -0.6,-23.3 -1.1,-34.9l0,-0.1c0,-1 -0.4,-1.9 -1.2,-2.6c-0.9,-0.8 -2.2,-1.1 -3.1,-1.2c-10.2,-1 -31,0.4 -31.2,0.4c-2.5,0.2 -5.4,0.3 -11.1,0.4c-0.2,10.6 -0.3,21.2 -0.1,31.9z" id="svg_6"/>
   <path class="st0" d="m71.8,409.5c-12.1,-0.2 -24.6,-0.3 -37,-0.4c0.1,2.5 0.1,5.1 0.2,8c0.2,11.7 0.3,23.6 0.2,35.1c0,1 0.4,1.9 1.2,2.6c1.1,1.1 2.5,1.1 2.9,1.1l0.1,0c14.4,0.4 29,0.8 43.5,0.9c-0.2,-16 -0.3,-31.8 -0.3,-47.2c-3.1,0 -6.7,0 -10.8,-0.1z" id="svg_7"/>
   <path class="st0" d="m150.9,359.8c-5.4,0 -10.3,0 -14.8,0c0.1,2.3 0.2,4.3 0.3,6.2c0.2,4.8 0.5,9.3 0.6,17.2c0.1,7.8 0,12.1 -0.2,21.7c0,0.1 0,0.2 0,0.3c3.2,-0.1 6.8,-0.2 11.5,-0.3c11.9,-0.2 23.9,-0.1 35.5,0.2c0.1,-9.4 0.1,-18.8 0.1,-28.1c0,-5.7 -0.1,-11.4 -0.2,-17.1c-10.8,-0.1 -21.8,-0.1 -32.8,-0.1z" id="svg_8"/>
   <path class="st1" d="m112.4,406c8.4,-0.1 13.2,-0.3 18.3,-0.6c0.7,0 1.4,-0.1 2.1,-0.1c0,-0.2 0,-0.3 0,-0.5c0.2,-9.5 0.3,-13.9 0.2,-21.6c-0.1,-7.8 -0.3,-12.3 -0.6,-17.1c-0.1,-2 -0.2,-4.1 -0.3,-6.4c-6.8,0 -12.6,-0.1 -18.1,-0.1c-4.9,0 -9.4,-0.1 -14,-0.1c-4.4,0 -8.8,0 -13.3,0c0,8.7 -0.1,15.7 -0.1,22.1c0,4.5 -0.1,8.7 -0.1,13c0,3.7 0,7.4 0,11.1c0.9,0 1.8,0 2.6,0c10.3,0.3 15,0.4 23.3,0.3z" id="svg_9"/>
   <path class="st0" d="m148.4,408.8c-4.8,0.1 -8.5,0.2 -11.6,0.3c-0.1,3.3 -0.1,7.2 -0.2,11.9c-0.2,11.8 -0.3,23.8 -0.5,35.9c14.1,-0.2 28.3,-0.5 42.3,-0.9l0.1,0c1.1,0 2.2,-0.4 2.9,-1.1c1.1,-1 1.2,-2.3 1.2,-2.6l0,-0.1c0.6,-14.3 1,-28.7 1.2,-43.1c-11.6,-0.4 -23.5,-0.5 -35.4,-0.3z" id="svg_10"/>
   <path class="st0" d="m132.6,421c0.1,-4.6 0.1,-8.4 0.2,-11.7c-0.6,0 -1.3,0.1 -1.9,0.1c-5.1,0.2 -10,0.5 -18.5,0.6c-8.3,0.1 -13,0 -23.3,-0.2c-0.8,0 -1.7,0 -2.5,0c0,15.4 0.1,31.2 0.3,47.2c6.1,0.1 12.2,0.1 18.3,0.1c9,0 18,0 27,-0.1c0,-12.1 0.2,-24.2 0.4,-36z" id="svg_11"/>
   <path d="m187.4,376.9c-0.1,-18.6 -0.6,-37.5 -1.4,-56.1c0,-1.9 -0.8,-3.8 -2.3,-5.1c-1.8,-1.7 -4.3,-2 -5.1,-2.1c-10.5,-1.1 -30.9,0.4 -31.8,0.4c-2.5,0.2 -5.5,0.3 -11.4,0.4c-0.2,0 -15.3,0.4 -28.7,0c-2.3,-0.1 -56.8,-1.8 -67.6,-0.8c-0.8,0.1 -3.3,0.3 -5.2,2.1c-0.9,0.8 -1.5,1.9 -1.9,3c-0.2,0.7 -0.3,1.4 -0.3,2.1c-1.1,16.5 -1.5,33.1 -1.4,49.2c0.1,7.9 0.3,14 0.5,21c0.2,6.9 0.5,14.7 0.7,26.1c0.2,11.7 0.3,23.5 0.2,35.1c0,2 0.8,3.8 2.3,5.2c2,1.9 4.3,2.1 5.3,2.1c21.8,0.7 44,1 65.8,1.1c1.2,0 2.5,0 3.7,0c23.1,0 46.6,-0.4 69.7,-1.1c2,0 3.9,-0.7 5.3,-2.1c2,-1.9 2.2,-4.2 2.3,-5.1c1,-25 1.5,-50.4 1.3,-75.4zm-3.5,0.1c0.1,9.3 0,18.7 -0.1,28.1c-11.7,-0.4 -23.6,-0.4 -35.5,-0.2c-4.7,0.1 -8.3,0.2 -11.5,0.3c0,-0.1 0,-0.2 0,-0.3c0.2,-9.6 0.3,-13.9 0.2,-21.7c-0.1,-7.9 -0.3,-12.4 -0.6,-17.2c-0.1,-2 -0.2,-4 -0.3,-6.2c4.5,0 9.3,0 14.8,0c11,0 22,0 32.8,0c0.1,5.7 0.2,11.5 0.2,17.2zm-36.8,-59.5c0.2,0 21,-1.5 31.2,-0.4c0.9,0.1 2.2,0.3 3.1,1.2c0.8,0.7 1.2,1.6 1.2,2.6l0,0.1c0.5,11.6 0.9,23.2 1.1,34.9c-10.8,0 -21.8,0 -32.7,0c-5.5,0 -10.4,0 -14.9,0c-0.1,-1.8 -0.1,-3.8 -0.2,-6.1c-0.2,-10.6 -0.1,-21.3 0.2,-31.7c5.6,-0.3 8.4,-0.4 11,-0.6zm-60.5,77.2c0,-4.3 0,-8.5 0.1,-13c0,-6.4 0.1,-13.4 0.1,-22.1c4.5,0 8.9,0 13.3,0c4.6,0 9.1,0 14,0.1c5.4,0 11.2,0.1 18.1,0.1c0.1,2.3 0.2,4.4 0.3,6.4c0.2,4.8 0.4,9.3 0.6,17.1c0.1,7.7 0,12.1 -0.2,21.6c0,0.2 0,0.3 0,0.5c-0.7,0 -1.4,0.1 -2.1,0.1c-5.1,0.2 -9.9,0.4 -18.3,0.6c-8.3,0.1 -13,0 -23.2,-0.2c-0.8,0 -1.7,0 -2.6,0c-0.1,-3.8 -0.1,-7.6 -0.1,-11.2zm20,-76.7c9.6,0.3 20.1,0.2 25.4,0.1c-0.3,10.4 -0.4,21.1 -0.2,31.7c0,2.2 0.1,4.2 0.2,6c-6.8,0 -12.5,-0.1 -17.9,-0.1c-4.9,0 -9.4,-0.1 -14,-0.1c-4.4,0 -8.8,0 -13.3,0c0,-2.6 0,-5.3 0,-8.2c0,-10 0,-20.1 0,-30c11.1,0.3 19.6,0.6 19.8,0.6zm-71.4,3l0,-0.1c0,-0.4 0.1,-0.7 0.2,-1.1c0.2,-0.6 0.5,-1.1 1,-1.5c0.9,-0.9 2.2,-1.1 3.1,-1.1c2.2,-0.2 6.5,-0.3 11.9,-0.3c9,0 21,0.2 31.6,0.5c0,9.9 0,20 0,30c0,2.9 0,5.6 0,8.2c-16,0 -32.5,0.1 -49,0.2c0,-11.5 0.4,-23.1 1.2,-34.8zm-0.9,70c-0.2,-7 -0.4,-13.1 -0.5,-20.9c0,-3.4 0,-6.8 0,-10.2c16.6,-0.2 33,-0.3 49.1,-0.3c0,8.7 -0.1,15.7 -0.1,22.1c0,4.5 -0.1,8.7 -0.1,13c0,3.7 0,7.4 0,11.1c-3.1,-0.1 -6.6,-0.1 -10.8,-0.2c-12.2,-0.2 -24.7,-0.3 -37.2,-0.4c-0.2,-5.5 -0.3,-10.1 -0.4,-14.2zm5,65l0,0c-0.5,0 -1.9,-0.1 -3,-1.1c-0.8,-0.7 -1.2,-1.6 -1.2,-2.6c0,-11.6 0,-23.4 -0.2,-35.1c0,-2.9 -0.1,-5.5 -0.2,-8c12.4,0.1 24.9,0.3 37,0.4c4.1,0.1 7.7,0.1 10.8,0.2c0,15.4 0.1,31.3 0.3,47.2c-14.5,-0.3 -29,-0.6 -43.5,-1zm65.8,1.1c-6.1,0 -12.2,0 -18.3,-0.1c-0.2,-16 -0.3,-31.8 -0.3,-47.2c0.9,0 1.7,0 2.5,0c10.3,0.2 15,0.3 23.3,0.2c8.5,-0.1 13.3,-0.3 18.5,-0.6c0.6,0 1.2,-0.1 1.9,-0.1c-0.1,3.3 -0.1,7.1 -0.2,11.7c-0.2,11.8 -0.3,23.9 -0.5,36c-8.9,0 -17.9,0.1 -26.9,0.1zm77.5,-5l0,0c0,0.4 -0.1,1.7 -1.2,2.7c-0.8,0.7 -1.8,1.1 -2.9,1.1l-0.1,0c-14,0.4 -28.2,0.7 -42.3,0.9c0.1,-12 0.3,-24.1 0.5,-35.9c0.1,-4.7 0.2,-8.6 0.2,-11.9c3.2,-0.1 6.9,-0.2 11.6,-0.3c11.9,-0.2 23.8,-0.1 35.4,0.2c-0.2,14.5 -0.6,28.9 -1.2,43.2z" id="svg_12"/>
  </g>
  <g id="svg_13">
   <path d="m235.2,345.6c0,1.2 -0.7,1.8 -2,1.8c-0.3,0 -0.5,-0.1 -0.7,-0.4c-0.2,-0.2 -0.3,-0.6 -0.3,-1.1l-0.1,-9.4c0,-3.1 0,-6 0.1,-8.7c-0.8,0.7 -1.6,1.6 -2.4,2.5c-0.8,1 -1.3,1.6 -1.6,1.9c-0.3,0.3 -0.7,0.6 -1.1,0.9c-0.5,0.3 -0.9,0.5 -1.3,0.5c-0.4,0 -0.7,-0.1 -0.9,-0.4c-0.2,-0.3 -0.4,-0.6 -0.4,-1c0,-0.4 0.3,-0.9 0.9,-1.6c0.6,-0.7 2.7,-3 6.4,-6.9c0.6,-0.5 1.3,-0.8 2.1,-0.8c0.4,0 0.8,0.1 1,0.4c0.3,0.2 0.4,0.5 0.4,0.8l-0.3,9.9l0.2,11.6z" id="svg_14"/>
  </g>
  <g id="svg_15">
   <path d="m287.6,347.4l-5.4,-0.1c-0.2,0 -0.5,0 -0.7,0c-2.4,0 -3.6,-0.5 -3.6,-1.4c0,-0.7 0.1,-1.3 0.4,-1.9c0.2,-0.6 0.5,-1 0.7,-1.3c0.2,-0.3 0.7,-0.8 1.3,-1.5c0.7,-0.7 1.1,-1.2 1.4,-1.5c0.3,-0.3 1.2,-1.2 2.7,-2.6c1.5,-1.4 2.6,-2.7 3.4,-3.8c0.7,-1.1 1.1,-2.3 1.1,-3.6c0,-1.9 -0.8,-3.2 -2.3,-3.8c-0.4,-0.1 -0.9,-0.2 -1.4,-0.2c-1.1,0 -2.1,0.5 -3.2,1.4c-0.4,0.4 -0.9,0.6 -1.3,0.6c-0.1,0 -0.3,0 -0.4,0c-0.6,-0.1 -0.9,-0.6 -0.9,-1.3c0,-1 0.7,-1.8 2,-2.4c1.4,-0.7 3,-1 4.7,-1c1.7,0 3.1,0.6 4.2,1.9c1.1,1.2 1.6,2.8 1.6,4.6c0,2.6 -0.8,4.9 -2.4,6.8c-0.8,0.9 -1.5,1.7 -2.3,2.5c-2.5,2.4 -4.1,4.2 -5,5.4c1.1,0.1 2.5,0.1 4.1,0.1c1.6,0 3.7,-0.1 6.1,-0.3c0.4,0.1 0.7,0.2 0.9,0.5c0.2,0.3 0.4,0.5 0.4,0.9c0,0.8 -0.4,1.4 -1.3,1.7c-1,0.1 -2.6,0.3 -4.8,0.3z" id="svg_16"/>
  </g>
  <g id="svg_17">
   <path d="m334.9,324.5c-1.4,0 -2.8,0.6 -4.1,1.9c-0.3,0.2 -0.7,0.4 -0.9,0.4c-0.3,0 -0.5,0 -0.7,-0.1c-0.6,-0.2 -0.8,-0.6 -0.8,-1.2c0,-1 0.6,-1.9 1.9,-2.7c1.3,-0.8 2.8,-1.1 4.5,-1.1c1.7,0 3.2,0.5 4.4,1.4c1.2,0.9 1.8,2.1 1.8,3.6c0,1.5 -0.2,2.7 -0.5,3.7c-0.3,1 -1.1,1.8 -2.2,2.4c2.6,1 3.9,2.8 3.9,5.3c0,2.2 -0.7,4 -2,5.6c-1.3,1.6 -2.9,2.3 -4.8,2.3c-1.9,0 -3.5,-0.4 -5,-1.3c-1.4,-0.9 -2.1,-1.9 -2.1,-3c0,-0.2 0.1,-0.5 0.4,-0.8c0.2,-0.3 0.6,-0.4 1.1,-0.4c0.5,0 1,0.2 1.5,0.6c0.5,0.4 1.2,0.9 1.8,1.3c0.7,0.4 1.5,0.6 2.3,0.6c2.5,0 3.7,-1.5 3.7,-4.6c0,-1.2 -0.4,-2.1 -1.3,-2.9c-0.8,-0.7 -2,-1.1 -3.6,-1.1c-0.3,0 -0.6,0 -0.7,-0.1c-0.2,0 -0.4,-0.1 -0.6,-0.3c-0.3,-0.2 -0.4,-0.5 -0.4,-0.9c0,-0.9 0.5,-1.4 1.5,-1.4c1,-0.1 1.9,-0.5 2.6,-1.3c0.8,-0.8 1.2,-1.8 1.2,-3.1c0,-0.7 -0.3,-1.3 -0.9,-1.9c-0.6,-0.7 -1.2,-0.9 -2,-0.9z" id="svg_18"/>
  </g>
  <g id="svg_19">
   <path d="m234.3,385.4c-0.9,0.1 -2.1,0.2 -3.8,0.2c-1.6,0 -2.7,-0.3 -3.3,-0.8c-0.6,-0.5 -0.9,-1.7 -0.9,-3.5c0,-1.8 0.1,-3.8 0.4,-6c0.3,-2.2 0.6,-3.8 0.9,-4.8c0.3,-1 1,-1.5 2,-1.5c0.7,0 1,0.3 1.1,0.8c0,0.1 0,0.4 0,0.7c0,0.3 -0.1,0.8 -0.2,1.4c-0.6,4.3 -0.9,7.4 -0.9,9.2c0,0.4 0,0.8 0,1.1c0.4,0.1 1,0.1 1.8,0.1c0.7,0 1.7,-0.1 2.9,-0.2c0,-0.5 0.1,-1.2 0.1,-2.1c0,-0.9 0,-1.6 0,-2.2c0,-0.6 0.1,-1 0.3,-1.3c0.1,-0.2 0.6,-0.4 1.3,-0.4c0.7,0 1.1,0.1 1.3,0.4c0.2,0.2 0.3,0.6 0.3,1c0,0.4 0,1.3 -0.1,2.7c-0.1,1.4 -0.1,5.2 -0.1,11.5c0,1.1 -0.5,1.7 -1.6,1.7c0,0 -0.1,0 -0.1,0c-0.9,0 -1.4,-0.7 -1.4,-2.2l0,-2l0,-3.8z" id="svg_20"/>
  </g>
  <g id="svg_21">
   <path class="st0" d="m282.9,377.6c1,-0.4 2,-0.6 2.9,-0.6c0.9,0 1.8,0.1 2.7,0.4c0.9,0.3 1.7,0.7 2.4,1.4c0.7,0.6 1.3,1.5 1.8,2.5c0.4,1.1 0.7,2.3 0.7,3.7c0,2.4 -0.7,4.3 -2.1,6c-1.4,1.6 -3,2.4 -4.8,2.4s-3.4,-0.4 -4.8,-1.2c-1.4,-0.8 -2,-1.7 -2,-2.7c0,-0.5 0.1,-0.8 0.2,-1.1c0.1,-0.2 0.3,-0.4 0.6,-0.6c0.3,-0.1 0.6,-0.2 0.8,-0.2c0.2,0 0.6,0.1 1,0.4c0.4,0.3 1,0.7 1.7,1.2c0.7,0.5 1.6,0.8 2.5,0.8c1,0 1.8,-0.5 2.5,-1.5c0.7,-1 1.1,-2 1.1,-3.2c0,-3.3 -1.5,-5 -4.5,-5c-0.6,0 -1.4,0.1 -2.2,0.2c-0.8,0.1 -1.4,0.2 -1.7,0.2c-0.3,0 -0.6,-0.1 -1.1,-0.3c-0.5,-0.5 -0.8,-2.1 -0.8,-4.7c0,-2.6 0.1,-4.3 0.2,-5.1c0.1,-0.8 0.3,-1.2 0.6,-1.3c0.5,-0.2 2.1,-0.3 4.6,-0.3c2.6,0 4.6,0.2 6.2,0.7c0.5,0.3 0.7,0.7 0.7,1.3c0,0.6 -0.2,1 -0.5,1.3c-0.3,0.3 -0.6,0.5 -1,0.4c-2,-0.4 -4.1,-0.7 -6.2,-0.7c-0.6,0 -1.3,0 -1.9,0.1c0.3,1.2 0.3,3 0.4,5.5z" id="svg_22"/>
  </g>
  <g id="svg_23">
   <path d="m339.1,370.7c-0.4,0.5 -1.2,2.1 -2.5,4.7c-1.3,2.6 -2,4.2 -2.2,4.7c1,-0.3 2.1,-0.4 3.2,-0.4c1.1,0 2.1,0.3 3,0.9c1.5,1 2.3,2.6 2.3,4.9c0,4.9 -2.4,7.3 -7.1,7.4c0,0 -0.1,0 -0.1,0c-1.7,0 -3,-0.6 -3.8,-1.8c-0.8,-1.2 -1.2,-2.8 -1.3,-4.8c0,-4.7 1.8,-9.8 5.3,-15.4c0.6,-1 1.1,-1.6 1.5,-1.9c0.4,-0.3 0.8,-0.4 1.1,-0.4c0.3,0 0.5,0.1 0.8,0.3c0.3,0.2 0.4,0.5 0.4,0.8c0,0.1 -0.2,0.5 -0.6,1zm1,15c0,-1 -0.3,-1.8 -0.8,-2.3c-0.6,-0.5 -1.3,-0.8 -2.2,-0.8c-0.9,0 -1.6,0.1 -2.1,0.2c-0.3,0.1 -0.6,0.3 -0.8,0.6c-0.2,0.2 -0.4,0.6 -0.5,1.1c-0.2,0.5 -0.2,1.2 -0.2,2c0,0.8 0.2,1.6 0.7,2.2c0.5,0.6 1.1,0.9 1.8,0.9c1.4,0 2.4,-0.4 3.2,-1.2c0.5,-0.8 0.9,-1.7 0.9,-2.7z" id="svg_24"/>
  </g>
  <g id="svg_25">
   <path d="m237.5,429.3l-0.3,11.6c0,0.5 -0.2,0.9 -0.5,1.2c-0.4,0.3 -0.8,0.4 -1.2,0.4c-0.7,0 -1,-0.9 -1,-2.8c0,-3.8 0.1,-7.3 0.3,-10.5l-3.8,0.2c-0.3,0 -0.6,-0.1 -0.8,-0.4c-0.2,-0.3 -0.4,-0.6 -0.4,-0.9c0,-0.9 0.5,-1.3 1.5,-1.3l3.6,0l0.4,-4.5c-0.8,-0.3 -3,-0.7 -6.4,-1.3c-1.3,-0.2 -2.1,-0.4 -2.4,-0.4c-0.6,-0.1 -1,-0.6 -1,-1.4c0,-0.3 0.1,-0.6 0.4,-0.8c0.2,-0.3 0.6,-0.4 1.1,-0.4c0.5,0 2.3,0.3 5.5,0.8c3.2,0.5 5,1 5.4,1.3c0.1,0.1 0.2,0.6 0.2,1.4c0,0.4 -0.1,1.4 -0.3,3c-0.1,1.1 -0.2,1.9 -0.3,2.3l1.8,-0.1c0.2,0 0.4,0 0.8,0c0.4,0 0.7,0.1 1,0.3c0.3,0.2 0.4,0.5 0.4,1c0,0.5 -0.2,0.8 -0.5,1.1c-0.3,0.2 -1,0.4 -2,0.4l-1.5,-0.2z" id="svg_26"/>
  </g>
  <g id="svg_27">
   <path d="m285.6,419.2c1.8,0 3.3,0.4 4.5,1.3c1.2,0.9 1.8,2.1 1.8,3.6c0,2.2 -1.2,4.2 -3.6,5.8c1.4,1.5 2.4,2.8 3,3.9c0.6,1.2 1,2.6 1,4.2c0,1.6 -0.6,3 -1.8,4c-1.3,1.1 -2.9,1.7 -4.9,1.7c-2,0 -3.5,-0.5 -4.6,-1.5c-1.2,-1 -1.7,-2.4 -1.7,-4.2c0,-2.9 1.4,-5.5 4.2,-7.7c-1.1,-0.6 -2,-1.4 -2.7,-2.6c-0.8,-1.2 -1.2,-2.5 -1.2,-3.8c0,-1.3 0.5,-2.4 1.6,-3.3c1.1,-1 2.6,-1.4 4.4,-1.4zm-3.7,18.3c0,0.1 0,0.2 0,0.3c0,1 0.4,1.7 1.2,2.2c0.8,0.5 1.8,0.8 3,0.8c1.1,0 1.9,-0.3 2.4,-0.9c0.5,-0.6 0.7,-1.4 0.7,-2.2c0,-0.9 -0.3,-1.8 -0.9,-2.7c-0.6,-0.9 -1.5,-2 -2.7,-3.2c-1.3,0.9 -2.2,1.8 -2.8,2.8c-0.6,1 -0.9,2 -0.9,2.9zm0.3,-13.2c0,0.5 0.1,1 0.4,1.4c0.3,0.4 0.6,0.8 0.9,1c0.3,0.2 0.7,0.5 1.2,0.8c0.5,0.3 0.9,0.6 1,0.7c0.8,-0.6 1.3,-1 1.6,-1.2c0.3,-0.2 0.6,-0.5 0.9,-0.9c0.4,-0.4 0.6,-0.7 0.7,-1c0.1,-0.3 0.1,-0.7 0.1,-1.3c0,-0.6 -0.4,-1.1 -1,-1.5c-0.7,-0.4 -1.4,-0.6 -2.1,-0.6c-0.1,0 -0.1,0 -0.2,0c-2.4,0.3 -3.5,1.1 -3.5,2.6z" id="svg_28"/>
  </g>
  <g id="svg_29">
   <path d="m341.2,424.8l0,3.7c0,0.8 0,3.2 0,7l0.1,7c0,0.4 -0.2,0.8 -0.6,1.1c-0.4,0.3 -0.7,0.4 -1.1,0.4c-0.3,0 -0.6,-0.2 -0.8,-0.5c-0.2,-0.3 -0.3,-0.7 -0.3,-1.1c-0.2,-3.6 -0.3,-7.3 -0.3,-11.2c-0.6,0.8 -1.9,1.3 -3.9,1.3c-1.3,0 -2.4,-0.7 -3.3,-2.1c-0.9,-1.4 -1.3,-2.9 -1.3,-4.5c0,-2.1 0.7,-3.7 2,-4.8c1.3,-1.1 3,-1.7 5,-1.7c2,0 3.4,0.8 4.2,2.3c0.2,0.5 0.3,1.5 0.3,3.1zm-2.9,0.9l0,-1.8c0,-0.6 0,-1 -0.1,-1.2c-0.1,-0.2 -0.2,-0.3 -0.4,-0.4c-0.2,-0.2 -0.4,-0.3 -0.6,-0.3c-0.2,0 -0.5,0 -0.9,0.1c-0.4,0.1 -0.9,0.3 -1.5,0.5c-0.6,0.3 -1.1,0.7 -1.6,1.3c-0.5,0.6 -0.7,1.4 -0.7,2.3s0.2,1.7 0.7,2.4c0.5,0.6 1,0.9 1.5,0.9c0.1,0 0.3,0 0.5,-0.1c1.5,-0.4 2.5,-0.8 3,-1.2l0,-2.5l0.1,0z" id="svg_30"/>
  </g>
  <g id="svg_31">
   <path class="st0" d="m259.4,560.4c0,-3.7 0,-7.4 0,-11.1c0,-4.3 0,-8.5 0.1,-13c0,-6.4 0.1,-13.4 0.1,-22.1c-16,0 -32.5,0.1 -49.1,0.3c0,3.4 0,6.8 0,10.2c0.1,7.8 0.3,13.9 0.5,20.9c0.1,4.2 0.3,8.7 0.4,14.1c12.5,0.1 25,0.3 37.2,0.4c4.1,0.2 7.7,0.2 10.8,0.3z" id="svg_32"/>
   <path class="st0" d="m259.6,502c0,-10 0,-20.1 0,-30c-10.6,-0.3 -22.6,-0.5 -31.6,-0.5c-5.3,0 -9.6,0.1 -11.9,0.3c-0.9,0.1 -2.2,0.3 -3.1,1.1c-0.5,0.4 -0.8,1 -1,1.5c-0.1,0.4 -0.2,0.7 -0.2,1.1l0,0.1c-0.7,11.7 -1.2,23.3 -1.3,34.8c16.6,-0.2 33,-0.3 49,-0.2c0.1,-2.5 0.1,-5.3 0.1,-8.2z" id="svg_33"/>
   <path class="st0" d="m263.6,502c0,2.9 0,5.6 0,8.2c4.5,0 8.9,0 13.3,0c4.6,0 9.1,0 14,0.1c5.4,0 11.2,0.1 17.9,0.1c-0.1,-1.8 -0.1,-3.8 -0.2,-6c-0.2,-10.6 -0.2,-21.3 0.2,-31.7c-5.3,0.1 -15.8,0.2 -25.4,-0.1c-0.2,0 -8.8,-0.3 -19.8,-0.6c0,10 0,20 0,30z" id="svg_34"/>
   <path class="st0" d="m312.6,504.4c0,2.3 0.1,4.3 0.2,6.1c4.5,0 9.4,0 14.9,0c10.9,0 21.9,0 32.7,0c-0.2,-11.6 -0.6,-23.3 -1.1,-34.9l0,-0.1c0,-1 -0.4,-1.9 -1.2,-2.6c-0.9,-0.8 -2.2,-1.1 -3.1,-1.2c-10.2,-1 -31,0.4 -31.2,0.4c-2.5,0.2 -5.4,0.3 -11.1,0.4c-0.2,10.5 -0.3,21.2 -0.1,31.9z" id="svg_35"/>
   <path class="st0" d="m248.6,564.2c-12.1,-0.2 -24.6,-0.3 -37,-0.4c0.1,2.5 0.1,5.1 0.2,8c0.2,11.7 0.3,23.6 0.2,35.1c0,1 0.4,1.9 1.2,2.6c1.1,1.1 2.5,1.1 2.9,1.1l0.1,0c14.4,0.4 29,0.8 43.5,0.9c-0.2,-16 -0.3,-31.8 -0.3,-47.2c-3.1,0 -6.7,-0.1 -10.8,-0.1z" id="svg_36"/>
   <path class="st0" d="m327.7,514.5c-5.4,0 -10.3,0 -14.8,0c0.1,2.3 0.2,4.3 0.3,6.2c0.2,4.8 0.5,9.3 0.6,17.2c0.1,7.8 0,12.1 -0.2,21.7c0,0.1 0,0.2 0,0.3c3.2,-0.1 6.8,-0.2 11.5,-0.3c11.9,-0.2 23.9,-0.1 35.5,0.2c0.1,-9.4 0.1,-18.8 0.1,-28.1c0,-5.7 -0.1,-11.4 -0.2,-17.1c-10.8,-0.1 -21.9,-0.1 -32.8,-0.1z" id="svg_37"/>
   <path class="st2" d="m289.1,560.7c8.4,-0.1 13.2,-0.3 18.3,-0.6c0.7,0 1.4,-0.1 2.1,-0.1c0,-0.2 0,-0.3 0,-0.5c0.2,-9.5 0.3,-13.9 0.2,-21.6c-0.1,-7.8 -0.3,-12.3 -0.6,-17.1c-0.1,-2 -0.2,-4.1 -0.3,-6.4c-6.8,0 -12.6,-0.1 -18.1,-0.1c-4.9,0 -9.4,-0.1 -14,-0.1c-4.4,0 -8.8,0 -13.3,0c0,8.7 -0.1,15.7 -0.1,22.1c0,4.5 -0.1,8.7 -0.1,13c0,3.7 0,7.4 0,11.1c0.9,0 1.8,0 2.6,0c10.4,0.3 15.1,0.4 23.3,0.3z" id="svg_38"/>
   <path class="st0" d="m325.2,563.5c-4.8,0.1 -8.5,0.2 -11.6,0.3c-0.1,3.3 -0.1,7.2 -0.2,11.9c-0.2,11.8 -0.3,23.8 -0.5,35.9c14.1,-0.2 28.3,-0.5 42.3,-0.9l0.1,0c1.1,0 2.2,-0.4 2.9,-1.1c1.1,-1 1.2,-2.3 1.2,-2.6l0,-0.1c0.6,-14.3 1,-28.7 1.2,-43.1c-11.7,-0.5 -23.6,-0.5 -35.4,-0.3z" id="svg_39"/>
   <path class="st0" d="m309.3,575.6c0.1,-4.6 0.1,-8.4 0.2,-11.7c-0.6,0 -1.3,0.1 -1.9,0.1c-5.1,0.2 -10,0.5 -18.5,0.6c-8.3,0.1 -13,0 -23.3,-0.2c-0.8,0 -1.7,0 -2.5,0c0,15.4 0.1,31.2 0.3,47.2c6.1,0.1 12.2,0.1 18.3,0.1c9,0 18,0 27,-0.1c0.1,-12.1 0.2,-24.2 0.4,-36z" id="svg_40"/>
   <path d="m364.2,531.6c-0.1,-18.6 -0.6,-37.5 -1.4,-56.1c0,-1.9 -0.8,-3.8 -2.3,-5.1c-1.8,-1.7 -4.3,-2 -5.1,-2.1c-10.5,-1.1 -30.9,0.4 -31.8,0.4c-2.5,0.2 -5.5,0.3 -11.4,0.4c-0.2,0 -15.3,0.4 -28.7,0c-2.3,-0.1 -56.8,-1.8 -67.6,-0.8c-0.8,0.1 -3.3,0.3 -5.2,2.1c-0.9,0.8 -1.5,1.9 -1.9,3c-0.2,0.7 -0.3,1.4 -0.3,2.1c-1.1,16.5 -1.5,33.1 -1.4,49.2c0.1,7.9 0.3,14 0.5,21c0.2,6.9 0.5,14.7 0.7,26.1c0.2,11.7 0.3,23.5 0.2,35.1c0,2 0.8,3.8 2.3,5.2c2,1.9 4.3,2.1 5.3,2.1c21.8,0.7 44,1 65.8,1.1c1.2,0 2.5,0 3.7,0c23.1,0 46.6,-0.4 69.7,-1.1c2,0 3.9,-0.7 5.3,-2.1c2,-1.9 2.2,-4.2 2.3,-5.1c1,-25.1 1.4,-50.4 1.3,-75.4zm-3.5,0c0.1,9.3 0,18.7 -0.1,28.1c-11.7,-0.4 -23.6,-0.4 -35.5,-0.2c-4.7,0.1 -8.3,0.2 -11.5,0.3c0,-0.1 0,-0.2 0,-0.3c0.2,-9.6 0.3,-13.9 0.2,-21.7c-0.1,-7.9 -0.3,-12.4 -0.6,-17.2c-0.1,-2 -0.2,-4 -0.3,-6.2c4.5,0 9.3,0 14.8,0c11,0 22,0 32.8,0c0.1,5.8 0.2,11.5 0.2,17.2zm-36.9,-59.4c0.2,0 21,-1.5 31.2,-0.4c0.9,0.1 2.2,0.3 3.1,1.2c0.8,0.7 1.2,1.6 1.2,2.6l0,0.1c0.5,11.6 0.9,23.2 1.1,34.9c-10.8,0 -21.8,0 -32.7,0c-5.5,0 -10.4,0 -14.9,0c-0.1,-1.8 -0.1,-3.8 -0.2,-6.1c-0.2,-10.6 -0.1,-21.3 0.2,-31.7c5.6,-0.3 8.5,-0.4 11,-0.6zm-60.4,77.1c0,-4.3 0,-8.5 0.1,-13c0,-6.4 0.1,-13.4 0.1,-22.1c4.5,0 8.9,0 13.3,0c4.6,0 9.1,0 14,0.1c5.4,0 11.2,0.1 18.1,0.1c0.1,2.3 0.2,4.4 0.3,6.4c0.2,4.8 0.4,9.3 0.6,17.1c0.1,7.7 0,12.1 -0.2,21.6c0,0.2 0,0.3 0,0.5c-0.7,0 -1.4,0.1 -2.1,0.1c-5.1,0.2 -9.9,0.4 -18.3,0.6c-8.3,0.1 -13,0 -23.2,-0.2c-0.8,0 -1.7,0 -2.6,0c-0.2,-3.8 -0.1,-7.5 -0.1,-11.2zm20,-76.7c9.6,0.3 20.1,0.2 25.4,0.1c-0.3,10.4 -0.4,21.1 -0.2,31.7c0,2.2 0.1,4.2 0.2,6c-6.8,0 -12.5,-0.1 -17.9,-0.1c-4.9,0 -9.4,-0.1 -14,-0.1c-4.4,0 -8.8,0 -13.3,0c0,-2.6 0,-5.3 0,-8.2c0,-10 0,-20.1 0,-30c11,0.3 19.6,0.6 19.8,0.6zm-71.5,3.1l0,-0.1c0,-0.4 0.1,-0.7 0.2,-1.1c0.2,-0.6 0.5,-1.1 1,-1.5c0.9,-0.9 2.2,-1.1 3.1,-1.1c2.2,-0.2 6.5,-0.3 11.9,-0.3c9,0 21,0.2 31.6,0.5c0,9.9 0,20 0,30c0,2.9 0,5.6 0,8.2c-16,0 -32.5,0.1 -49,0.2c0,-11.5 0.5,-23.2 1.2,-34.8zm-0.9,69.9c-0.2,-7 -0.4,-13.1 -0.5,-20.9c0,-3.4 0,-6.8 0,-10.2c16.6,-0.2 33,-0.3 49.1,-0.3c0,8.7 -0.1,15.7 -0.1,22.1c0,4.5 -0.1,8.7 -0.1,13c0,3.7 0,7.4 0,11.1c-3.1,-0.1 -6.6,-0.1 -10.8,-0.2c-12.2,-0.2 -24.7,-0.3 -37.2,-0.4c-0.1,-5.5 -0.2,-10 -0.4,-14.2zm5.1,65l0,0c-0.5,0 -1.9,-0.1 -3,-1.1c-0.8,-0.7 -1.2,-1.6 -1.2,-2.6c0,-11.6 0,-23.4 -0.2,-35.1c0,-2.9 -0.1,-5.5 -0.2,-8c12.4,0.1 24.9,0.3 37,0.4c4.1,0.1 7.7,0.1 10.8,0.2c0,15.4 0.1,31.3 0.3,47.2c-14.5,-0.2 -29.1,-0.5 -43.5,-1zm65.8,1.1c-6.1,0 -12.2,0 -18.3,-0.1c-0.2,-16 -0.3,-31.8 -0.3,-47.2c0.9,0 1.7,0 2.5,0c10.3,0.2 15,0.3 23.3,0.2c8.5,-0.1 13.3,-0.3 18.5,-0.6c0.6,0 1.2,-0.1 1.9,-0.1c-0.1,3.3 -0.1,7.1 -0.2,11.7c-0.2,11.8 -0.3,23.9 -0.5,36c-8.9,0.1 -18,0.1 -26.9,0.1zm77.4,-4.9l0,0c0,0.4 -0.1,1.7 -1.2,2.7c-0.8,0.7 -1.8,1.1 -2.9,1.1l-0.1,0c-14,0.4 -28.2,0.7 -42.3,0.9c0.1,-12 0.3,-24.1 0.5,-35.9c0.1,-4.7 0.2,-8.6 0.2,-11.9c3.2,-0.1 6.9,-0.2 11.6,-0.3c11.9,-0.2 23.8,-0.1 35.4,0.2c-0.2,14.5 -0.6,28.9 -1.2,43.2z" id="svg_41"/>
  </g>
  <g id="svg_42">
   <path d="m235,115.2c0,1.2 -0.7,1.8 -2,1.8c-0.3,0 -0.5,-0.1 -0.7,-0.4c-0.2,-0.2 -0.3,-0.6 -0.3,-1.1l-0.1,-9.4c0,-3.1 0,-6 0.1,-8.7c-0.8,0.7 -1.6,1.6 -2.4,2.5c-0.8,1 -1.3,1.6 -1.6,1.9c-0.3,0.3 -0.7,0.6 -1.1,0.9c-0.5,0.3 -0.9,0.5 -1.3,0.5c-0.4,0 -0.7,-0.1 -0.9,-0.4c-0.2,-0.3 -0.4,-0.6 -0.4,-1c0,-0.4 0.3,-0.9 0.9,-1.6c0.6,-0.7 2.7,-3 6.4,-6.9c0.6,-0.5 1.3,-0.8 2.1,-0.8c0.4,0 0.8,0.1 1,0.4c0.3,0.2 0.4,0.5 0.4,0.8l-0.3,9.9l0.2,11.6z" id="svg_43"/>
  </g>
  <g id="svg_44">
   <path d="m287.4,117l-5.4,0c-0.2,0 -0.5,0 -0.7,0c-2.4,0 -3.6,-0.5 -3.6,-1.4c0,-0.7 0.1,-1.3 0.4,-1.9c0.2,-0.6 0.5,-1 0.7,-1.3c0.2,-0.3 0.7,-0.8 1.3,-1.5c0.7,-0.7 1.1,-1.2 1.4,-1.5c0.3,-0.3 1.2,-1.2 2.7,-2.6c1.5,-1.4 2.6,-2.7 3.4,-3.8c0.7,-1.1 1.1,-2.3 1.1,-3.6c0,-1.9 -0.8,-3.2 -2.3,-3.8c-0.4,-0.1 -0.9,-0.2 -1.4,-0.2c-1.1,0 -2.1,0.5 -3.2,1.4c-0.4,0.4 -0.9,0.6 -1.3,0.6c-0.1,0 -0.3,0 -0.4,0c-0.6,-0.1 -0.9,-0.6 -0.9,-1.3c0,-1 0.7,-1.8 2,-2.4c1.4,-0.7 3,-1 4.7,-1c1.7,0 3.1,0.6 4.2,1.9c1.1,1.2 1.6,2.8 1.6,4.6c0,2.6 -0.8,4.9 -2.4,6.8c-0.8,0.9 -1.5,1.7 -2.3,2.5c-2.5,2.4 -4.1,4.2 -5,5.4c1.1,0.1 2.5,0.1 4.1,0.1c1.6,0 3.7,-0.1 6.1,-0.3c0.4,0.1 0.7,0.2 0.9,0.5c0.2,0.3 0.4,0.5 0.4,0.9c0,0.8 -0.4,1.4 -1.3,1.7c-1.1,0.1 -2.6,0.2 -4.8,0.2z" id="svg_45"/>
  </g>
  <g id="svg_46">
   <path d="m334.6,94.1c-1.4,0 -2.8,0.6 -4.1,1.9c-0.3,0.2 -0.7,0.4 -0.9,0.4c-0.3,0 -0.5,0 -0.7,-0.1c-0.6,-0.2 -0.8,-0.6 -0.8,-1.2c0,-1 0.6,-1.9 1.9,-2.7c1.3,-0.8 2.8,-1.1 4.5,-1.1c1.7,0 3.2,0.5 4.4,1.4c1.2,0.9 1.8,2.1 1.8,3.6c0,1.5 -0.2,2.7 -0.5,3.7c-0.3,1 -1.1,1.8 -2.2,2.4c2.6,1 3.9,2.8 3.9,5.3c0,2.2 -0.7,4 -2,5.6c-1.3,1.6 -2.9,2.3 -4.8,2.3c-1.9,0 -3.5,-0.4 -5,-1.3c-1.4,-0.9 -2.1,-1.9 -2.1,-3c0,-0.2 0.1,-0.5 0.4,-0.8c0.2,-0.3 0.6,-0.4 1.1,-0.4c0.5,0 1,0.2 1.5,0.6c0.5,0.4 1.2,0.9 1.8,1.3c0.7,0.4 1.5,0.6 2.3,0.6c2.5,0 3.7,-1.5 3.7,-4.6c0,-1.2 -0.4,-2.1 -1.3,-2.9c-0.8,-0.7 -2,-1.1 -3.6,-1.1c-0.3,0 -0.6,0 -0.7,-0.1c-0.2,0 -0.4,-0.1 -0.6,-0.3c-0.3,-0.2 -0.4,-0.5 -0.4,-0.9c0,-0.9 0.5,-1.4 1.5,-1.4c1,-0.1 1.9,-0.5 2.6,-1.3c0.8,-0.8 1.2,-1.8 1.2,-3.1c0,-0.7 -0.3,-1.3 -0.9,-1.9c-0.5,-0.6 -1.2,-0.9 -2,-0.9z" id="svg_47"/>
  </g>
  <g id="svg_48">
   <path d="m234.1,155.1c-0.9,0.1 -2.1,0.2 -3.8,0.2c-1.6,0 -2.7,-0.3 -3.3,-0.8c-0.6,-0.5 -0.9,-1.7 -0.9,-3.5s0.1,-3.8 0.4,-6c0.3,-2.2 0.6,-3.8 0.9,-4.8c0.3,-1 1,-1.5 2,-1.5c0.7,0 1,0.3 1.1,0.8c0,0.1 0,0.4 0,0.7c0,0.3 -0.1,0.8 -0.2,1.4c-0.6,4.3 -0.9,7.4 -0.9,9.2c0,0.4 0,0.8 0,1.1c0.4,0.1 1,0.1 1.8,0.1c0.7,0 1.7,-0.1 2.9,-0.2c0,-0.5 0.1,-1.2 0.1,-2.1c0,-0.9 0,-1.6 0,-2.2c0,-0.6 0.1,-1 0.3,-1.3c0.1,-0.2 0.6,-0.4 1.3,-0.4c0.7,0 1.1,0.1 1.3,0.4c0.2,0.2 0.3,0.6 0.3,1c0,0.4 0,1.3 -0.1,2.7c-0.1,1.4 -0.1,5.2 -0.1,11.5c0,1.1 -0.5,1.7 -1.6,1.7c0,0 -0.1,0 -0.1,0c-0.9,0 -1.4,-0.7 -1.4,-2.2l0,-2l0,-3.8z" id="svg_49"/>
  </g>
  <g id="svg_50">
   <path d="m283.6,534.3c1,-0.4 2,-0.6 2.9,-0.6c0.9,0 1.8,0.1 2.7,0.4c0.9,0.3 1.7,0.7 2.4,1.4c0.7,0.6 1.3,1.5 1.8,2.5c0.4,1.1 0.7,2.3 0.7,3.7c0,2.4 -0.7,4.3 -2.1,6c-1.4,1.6 -3,2.4 -4.8,2.4s-3.4,-0.4 -4.8,-1.2c-1.4,-0.8 -2,-1.7 -2,-2.7c0,-0.5 0.1,-0.8 0.2,-1.1c0.1,-0.2 0.3,-0.4 0.6,-0.6c0.3,-0.1 0.6,-0.2 0.8,-0.2c0.2,0 0.6,0.1 1,0.4c0.4,0.3 1,0.7 1.7,1.2c0.7,0.5 1.6,0.8 2.5,0.8c1,0 1.8,-0.5 2.5,-1.5c0.7,-1 1.1,-2 1.1,-3.2c0,-3.3 -1.5,-5 -4.5,-5c-0.6,0 -1.4,0.1 -2.2,0.2c-0.8,0.1 -1.4,0.2 -1.7,0.2c-0.3,0 -0.6,-0.1 -1.1,-0.3c-0.5,-0.5 -0.8,-2.1 -0.8,-4.7c0,-2.6 0.1,-4.3 0.2,-5.1c0.1,-0.8 0.3,-1.2 0.6,-1.3c0.5,-0.2 2.1,-0.3 4.6,-0.3c2.6,0 4.6,0.2 6.2,0.7c0.5,0.3 0.7,0.7 0.7,1.3c0,0.6 -0.2,1 -0.5,1.3c-0.3,0.3 -0.6,0.5 -1,0.4c-2,-0.4 -4.1,-0.7 -6.2,-0.7c-0.6,0 -1.3,0 -1.9,0.1c0.3,1.2 0.4,2.9 0.4,5.5z" id="svg_51"/>
  </g>
  <g id="svg_52">
   <path d="m338.9,140.4c-0.4,0.5 -1.2,2.1 -2.5,4.7c-1.3,2.6 -2,4.2 -2.2,4.7c1,-0.3 2.1,-0.4 3.2,-0.4c1.1,0 2.1,0.3 3,0.9c1.5,1 2.3,2.6 2.3,4.9c0,4.9 -2.4,7.3 -7.1,7.4c0,0 -0.1,0 -0.1,0c-1.7,0 -3,-0.6 -3.8,-1.8c-0.8,-1.2 -1.2,-2.8 -1.3,-4.8c0,-4.7 1.8,-9.8 5.3,-15.4c0.6,-1 1.1,-1.6 1.5,-1.9c0.4,-0.3 0.8,-0.4 1.1,-0.4c0.3,0 0.5,0.1 0.8,0.3c0.3,0.2 0.4,0.5 0.4,0.8c-0.1,0.1 -0.3,0.5 -0.6,1zm1,14.9c0,-1 -0.3,-1.8 -0.8,-2.3c-0.6,-0.5 -1.3,-0.8 -2.2,-0.8c-0.9,0 -1.6,0.1 -2.1,0.2c-0.3,0.1 -0.6,0.3 -0.8,0.6c-0.2,0.2 -0.4,0.6 -0.5,1.1c-0.2,0.5 -0.2,1.2 -0.2,2c0,0.8 0.2,1.6 0.7,2.2c0.5,0.6 1.1,0.9 1.8,0.9c1.4,0 2.4,-0.4 3.2,-1.2c0.5,-0.8 0.9,-1.7 0.9,-2.7z" id="svg_53"/>
  </g>
  <g id="svg_54">
   <path d="m237.3,199l-0.3,11.6c0,0.5 -0.2,0.9 -0.5,1.2c-0.4,0.3 -0.8,0.4 -1.2,0.4c-0.7,0 -1,-0.9 -1,-2.8c0,-3.8 0.1,-7.3 0.3,-10.5l-3.8,0.2c-0.3,0 -0.6,-0.1 -0.8,-0.4c-0.2,-0.3 -0.4,-0.6 -0.4,-0.9c0,-0.9 0.5,-1.3 1.5,-1.3l3.6,0l0.4,-4.5c-0.8,-0.3 -3,-0.7 -6.4,-1.3c-1.3,-0.2 -2.1,-0.4 -2.4,-0.4c-0.6,-0.1 -1,-0.6 -1,-1.4c0,-0.3 0.1,-0.6 0.4,-0.8c0.2,-0.3 0.6,-0.4 1.1,-0.4c0.5,0 2.3,0.3 5.5,0.8c3.2,0.5 5,1 5.4,1.3c0.1,0.1 0.2,0.6 0.2,1.4c0,0.4 -0.1,1.4 -0.3,3c-0.1,1.1 -0.2,1.9 -0.3,2.3l1.8,-0.1c0.2,0 0.4,0 0.8,0c0.4,0 0.7,0.1 1,0.3c0.3,0.2 0.4,0.5 0.4,1c0,0.5 -0.2,0.8 -0.5,1.1c-0.3,0.2 -1,0.4 -2,0.4l-1.5,-0.2z" id="svg_55"/>
  </g>
  <g id="svg_56">
   <path d="m285.4,188.8c1.8,0 3.3,0.4 4.5,1.3c1.2,0.9 1.8,2.1 1.8,3.6c0,2.2 -1.2,4.2 -3.6,5.8c1.4,1.5 2.4,2.8 3,3.9c0.6,1.2 1,2.6 1,4.2c0,1.6 -0.6,3 -1.8,4c-1.3,1.1 -2.9,1.7 -4.9,1.7c-2,0 -3.5,-0.5 -4.6,-1.5c-1.2,-1 -1.7,-2.4 -1.7,-4.2c0,-2.9 1.4,-5.5 4.2,-7.7c-1.1,-0.6 -2,-1.4 -2.7,-2.6c-0.8,-1.2 -1.2,-2.5 -1.2,-3.8c0,-1.3 0.5,-2.4 1.6,-3.3c1.1,-0.9 2.6,-1.4 4.4,-1.4zm-3.7,18.4c0,0.1 0,0.2 0,0.3c0,1 0.4,1.7 1.2,2.2c0.8,0.5 1.8,0.8 3,0.8c1.1,0 1.9,-0.3 2.4,-0.9c0.5,-0.6 0.7,-1.4 0.7,-2.2c0,-0.9 -0.3,-1.8 -0.9,-2.7c-0.6,-0.9 -1.5,-2 -2.7,-3.2c-1.3,0.9 -2.2,1.8 -2.8,2.8c-0.6,1 -0.9,1.9 -0.9,2.9zm0.2,-13.2c0,0.5 0.1,1 0.4,1.4c0.3,0.4 0.6,0.8 0.9,1c0.3,0.2 0.7,0.5 1.2,0.8c0.5,0.3 0.9,0.6 1,0.7c0.8,-0.6 1.3,-1 1.6,-1.2c0.3,-0.2 0.6,-0.5 0.9,-0.9c0.4,-0.4 0.6,-0.7 0.7,-1c0.1,-0.3 0.1,-0.7 0.1,-1.3c0,-0.6 -0.4,-1.1 -1,-1.5c-0.7,-0.4 -1.4,-0.6 -2.1,-0.6c-0.1,0 -0.1,0 -0.2,0c-2.3,0.2 -3.5,1.1 -3.5,2.6z" id="svg_57"/>
  </g>
  <g id="svg_58">
   <path d="m341,194.4l0,3.7c0,0.8 0,3.2 0,7l0.1,7c0,0.4 -0.2,0.8 -0.6,1.1c-0.4,0.3 -0.7,0.4 -1.1,0.4c-0.3,0 -0.6,-0.2 -0.8,-0.5c-0.2,-0.3 -0.3,-0.7 -0.3,-1.1c-0.2,-3.6 -0.3,-7.3 -0.3,-11.2c-0.6,0.8 -1.9,1.3 -3.9,1.3c-1.3,0 -2.4,-0.7 -3.3,-2.1c-0.9,-1.4 -1.3,-2.9 -1.3,-4.5c0,-2.1 0.7,-3.7 2,-4.8c1.3,-1.1 3,-1.7 5,-1.7c2,0 3.4,0.8 4.2,2.3c0.2,0.5 0.3,1.5 0.3,3.1zm-2.9,0.9l0,-1.8c0,-0.6 0,-1 -0.1,-1.2c-0.1,-0.2 -0.2,-0.3 -0.4,-0.4c-0.2,-0.2 -0.4,-0.3 -0.6,-0.3c-0.2,0 -0.5,0 -0.9,0.1c-0.4,0.1 -0.9,0.3 -1.5,0.5c-0.6,0.3 -1.1,0.7 -1.6,1.3c-0.5,0.6 -0.7,1.4 -0.7,2.3c0,1 0.2,1.7 0.7,2.4c0.5,0.6 1,0.9 1.5,0.9c0.1,0 0.3,0 0.5,-0.1c1.5,-0.4 2.5,-0.8 3,-1.2l0,-2.5l0.1,0z" id="svg_59"/>
  </g>
  <g id="svg_71">
   <path d="m59.9,347.8c0,1.2 -0.7,1.8 -2,1.8c-0.3,0 -0.5,-0.1 -0.7,-0.4c-0.2,-0.2 -0.3,-0.6 -0.3,-1.1l-0.1,-9.4c0,-3.1 0,-6 0.1,-8.7c-0.8,0.7 -1.6,1.6 -2.4,2.5c-0.8,1 -1.3,1.6 -1.6,1.9c-0.3,0.3 -0.7,0.6 -1.1,0.9c-0.5,0.3 -0.9,0.5 -1.3,0.5c-0.4,0 -0.7,-0.1 -0.9,-0.4c-0.2,-0.3 -0.4,-0.6 -0.4,-1c0,-0.4 0.3,-0.9 0.9,-1.6c0.6,-0.7 2.7,-3 6.4,-6.9c0.6,-0.5 1.3,-0.8 2.1,-0.8c0.4,0 0.8,0.1 1,0.4c0.3,0.2 0.4,0.5 0.4,0.8l-0.3,9.9l0.2,11.6z" id="svg_72"/>
  </g>
  <g id="svg_73">
   <path d="m112.3,349.6l-5.4,-0.1c-0.2,0 -0.5,0 -0.7,0c-2.4,0 -3.6,-0.5 -3.6,-1.4c0,-0.7 0.1,-1.3 0.4,-1.9c0.2,-0.6 0.5,-1 0.7,-1.3c0.2,-0.3 0.7,-0.8 1.3,-1.5c0.7,-0.7 1.1,-1.2 1.4,-1.5c0.3,-0.3 1.2,-1.2 2.7,-2.6c1.5,-1.4 2.6,-2.7 3.4,-3.8c0.7,-1.1 1.1,-2.3 1.1,-3.6c0,-1.9 -0.8,-3.2 -2.3,-3.8c-0.4,-0.1 -0.9,-0.2 -1.4,-0.2c-1.1,0 -2.1,0.5 -3.2,1.4c-0.4,0.4 -0.9,0.6 -1.3,0.6c-0.1,0 -0.3,0 -0.4,0c-0.6,-0.1 -0.9,-0.6 -0.9,-1.3c0,-1 0.7,-1.8 2,-2.4c1.4,-0.7 3,-1 4.7,-1c1.7,0 3.1,0.6 4.2,1.9c1.1,1.2 1.6,2.8 1.6,4.6c0,2.6 -0.8,4.9 -2.4,6.8c-0.8,0.9 -1.5,1.7 -2.3,2.5c-2.5,2.4 -4.1,4.2 -5,5.4c1.1,0.1 2.5,0.1 4.1,0.1c1.6,0 3.7,-0.1 6.1,-0.3c0.4,0.1 0.7,0.2 0.9,0.5c0.2,0.3 0.4,0.5 0.4,0.9c0,0.8 -0.4,1.4 -1.3,1.7c-1,0.2 -2.5,0.3 -4.8,0.3z" id="svg_74"/>
  </g>
  <g id="svg_75">
   <path d="m159.6,326.7c-1.4,0 -2.8,0.6 -4.1,1.9c-0.3,0.2 -0.7,0.4 -0.9,0.4c-0.3,0 -0.5,0 -0.7,-0.1c-0.6,-0.2 -0.8,-0.6 -0.8,-1.2c0,-1 0.6,-1.9 1.9,-2.7c1.3,-0.8 2.8,-1.1 4.5,-1.1c1.7,0 3.2,0.5 4.4,1.4c1.2,0.9 1.8,2.1 1.8,3.6c0,1.5 -0.2,2.7 -0.5,3.7c-0.3,1 -1.1,1.8 -2.2,2.4c2.6,1 3.9,2.8 3.9,5.3c0,2.2 -0.7,4 -2,5.6c-1.3,1.6 -2.9,2.3 -4.8,2.3c-1.9,0 -3.5,-0.4 -5,-1.3c-1.4,-0.9 -2.1,-1.9 -2.1,-3c0,-0.2 0.1,-0.5 0.4,-0.8c0.2,-0.3 0.6,-0.4 1.1,-0.4c0.5,0 1,0.2 1.5,0.6c0.5,0.4 1.2,0.9 1.8,1.3c0.7,0.4 1.5,0.6 2.3,0.6c2.5,0 3.7,-1.5 3.7,-4.6c0,-1.2 -0.4,-2.1 -1.3,-2.9c-0.8,-0.7 -2,-1.1 -3.6,-1.1c-0.3,0 -0.6,0 -0.7,-0.1c-0.2,0 -0.4,-0.1 -0.6,-0.3c-0.3,-0.2 -0.4,-0.5 -0.4,-0.9c0,-0.9 0.5,-1.4 1.5,-1.4c1,-0.1 1.9,-0.5 2.6,-1.3c0.8,-0.8 1.2,-1.8 1.2,-3.1c0,-0.7 -0.3,-1.3 -0.9,-1.9c-0.5,-0.6 -1.2,-0.9 -2,-0.9z" id="svg_76"/>
  </g>
  <g id="svg_77">
   <path d="m59,387.7c-0.9,0.1 -2.1,0.2 -3.8,0.2c-1.6,0 -2.7,-0.3 -3.3,-0.8c-0.6,-0.5 -0.9,-1.7 -0.9,-3.5c0,-1.8 0.1,-3.8 0.4,-6c0.3,-2.2 0.6,-3.8 0.9,-4.8c0.3,-1 1,-1.5 2,-1.5c0.7,0 1,0.3 1.1,0.8c0,0.1 0,0.4 0,0.7c0,0.3 -0.1,0.8 -0.2,1.4c-0.6,4.3 -0.9,7.4 -0.9,9.2c0,0.4 0,0.8 0,1.1c0.4,0.1 1,0.1 1.8,0.1c0.7,0 1.7,-0.1 2.9,-0.2c0,-0.5 0.1,-1.2 0.1,-2.1c0,-0.9 0,-1.6 0,-2.2c0,-0.6 0.1,-1 0.3,-1.3c0.1,-0.2 0.6,-0.4 1.3,-0.4s1.1,0.1 1.3,0.4c0.2,0.2 0.3,0.6 0.3,1c0,0.4 0,1.3 -0.1,2.7c-0.1,1.4 -0.1,5.2 -0.1,11.5c0,1.1 -0.5,1.7 -1.6,1.7c0,0 -0.1,0 -0.1,0c-0.9,0 -1.4,-0.7 -1.4,-2.2l0,-2l0,-3.8z" id="svg_78"/>
  </g>
  <g id="svg_79">
   <path class="st0" d="m107.6,379.9c1,-0.4 2,-0.6 2.9,-0.6c0.9,0 1.8,0.1 2.7,0.4c0.9,0.3 1.7,0.7 2.4,1.4c0.7,0.6 1.3,1.5 1.8,2.5c0.4,1.1 0.7,2.3 0.7,3.7c0,2.4 -0.7,4.3 -2.1,6c-1.4,1.6 -3,2.4 -4.8,2.4s-3.4,-0.4 -4.8,-1.2c-1.4,-0.8 -2,-1.7 -2,-2.7c0,-0.5 0.1,-0.8 0.2,-1.1c0.1,-0.2 0.3,-0.4 0.6,-0.6c0.3,-0.1 0.6,-0.2 0.8,-0.2c0.2,0 0.6,0.1 1,0.4c0.4,0.3 1,0.7 1.7,1.2c0.7,0.5 1.6,0.8 2.5,0.8c1,0 1.8,-0.5 2.5,-1.5c0.7,-1 1.1,-2 1.1,-3.2c0,-3.3 -1.5,-5 -4.5,-5c-0.6,0 -1.4,0.1 -2.2,0.2c-0.8,0.1 -1.4,0.2 -1.7,0.2c-0.3,0 -0.6,-0.1 -1.1,-0.3c-0.5,-0.5 -0.8,-2.1 -0.8,-4.7c0,-2.6 0.1,-4.3 0.2,-5.1c0.1,-0.8 0.3,-1.2 0.6,-1.3c0.5,-0.2 2.1,-0.3 4.6,-0.3c2.6,0 4.6,0.2 6.2,0.7c0.5,0.3 0.7,0.7 0.7,1.3c0,0.6 -0.2,1 -0.5,1.3c-0.3,0.3 -0.6,0.5 -1,0.4c-2,-0.4 -4.1,-0.7 -6.2,-0.7c-0.6,0 -1.3,0 -1.9,0.1c0.3,1.2 0.3,3 0.4,5.5z" id="svg_80"/>
  </g>
  <g id="svg_81">
   <path d="m163.8,373c-0.4,0.5 -1.2,2.1 -2.5,4.7c-1.3,2.6 -2,4.2 -2.2,4.7c1,-0.3 2.1,-0.4 3.2,-0.4c1.1,0 2.1,0.3 3,0.9c1.5,1 2.3,2.6 2.3,4.9c0,4.9 -2.4,7.3 -7.1,7.4c0,0 -0.1,0 -0.1,0c-1.7,0 -3,-0.6 -3.8,-1.8c-0.8,-1.2 -1.2,-2.8 -1.3,-4.8c0,-4.7 1.8,-9.8 5.3,-15.4c0.6,-1 1.1,-1.6 1.5,-1.9c0.4,-0.3 0.8,-0.4 1.1,-0.4c0.3,0 0.5,0.1 0.8,0.3c0.3,0.2 0.4,0.5 0.4,0.8c0,0.1 -0.2,0.5 -0.6,1zm1,15c0,-1 -0.3,-1.8 -0.8,-2.3c-0.6,-0.5 -1.3,-0.8 -2.2,-0.8c-0.9,0 -1.6,0.1 -2.1,0.2c-0.3,0.1 -0.6,0.3 -0.8,0.6c-0.2,0.2 -0.4,0.6 -0.5,1.1c-0.2,0.5 -0.2,1.2 -0.2,2c0,0.8 0.2,1.6 0.7,2.2c0.5,0.6 1.1,0.9 1.8,0.9c1.4,0 2.4,-0.4 3.2,-1.2c0.6,-0.8 0.9,-1.7 0.9,-2.7z" id="svg_82"/>
  </g>
  <g id="svg_83">
   <path d="m62.2,431.6l-0.3,11.6c0,0.5 -0.2,0.9 -0.5,1.2c-0.4,0.3 -0.8,0.4 -1.2,0.4c-0.7,0 -1,-0.9 -1,-2.8c0,-3.8 0.1,-7.3 0.3,-10.5l-3.8,0.2c-0.3,0 -0.6,-0.1 -0.8,-0.4c-0.2,-0.3 -0.4,-0.6 -0.4,-0.9c0,-0.9 0.5,-1.3 1.5,-1.3l3.6,0l0.4,-4.5c-0.8,-0.3 -3,-0.7 -6.4,-1.3c-1.3,-0.2 -2.1,-0.4 -2.4,-0.4c-0.6,-0.1 -1,-0.6 -1,-1.4c0,-0.3 0.1,-0.6 0.4,-0.8c0.2,-0.3 0.6,-0.4 1.1,-0.4c0.5,0 2.3,0.3 5.5,0.8c3.2,0.5 5,1 5.4,1.3c0.1,0.1 0.2,0.6 0.2,1.4c0,0.4 -0.1,1.4 -0.3,3c-0.1,1.1 -0.2,1.9 -0.3,2.3l1.8,-0.1c0.2,0 0.4,0 0.8,0c0.4,0 0.7,0.1 1,0.3c0.3,0.2 0.4,0.5 0.4,1c0,0.5 -0.2,0.8 -0.5,1.1c-0.3,0.2 -1,0.4 -2,0.4l-1.5,-0.2z" id="svg_84"/>
  </g>
  <g id="svg_85">
   <path d="m110.4,421.5c1.8,0 3.3,0.4 4.5,1.3c1.2,0.9 1.8,2.1 1.8,3.6c0,2.2 -1.2,4.2 -3.6,5.8c1.4,1.5 2.4,2.8 3,3.9c0.6,1.2 1,2.6 1,4.2c0,1.6 -0.6,3 -1.8,4c-1.3,1.1 -2.9,1.7 -4.9,1.7c-2,0 -3.5,-0.5 -4.6,-1.5c-1.2,-1 -1.7,-2.4 -1.7,-4.2c0,-2.9 1.4,-5.5 4.2,-7.7c-1.1,-0.6 -2,-1.4 -2.7,-2.6c-0.8,-1.2 -1.2,-2.5 -1.2,-3.8c0,-1.3 0.5,-2.4 1.6,-3.3c1.1,-1 2.6,-1.4 4.4,-1.4zm-3.7,18.3c0,0.1 0,0.2 0,0.3c0,1 0.4,1.7 1.2,2.2c0.8,0.5 1.8,0.8 3,0.8c1.1,0 1.9,-0.3 2.4,-0.9c0.5,-0.6 0.7,-1.4 0.7,-2.2c0,-0.9 -0.3,-1.8 -0.9,-2.7c-0.6,-0.9 -1.5,-2 -2.7,-3.2c-1.3,0.9 -2.2,1.8 -2.8,2.8c-0.6,1 -0.9,2 -0.9,2.9zm0.2,-13.2c0,0.5 0.1,1 0.4,1.4c0.3,0.4 0.6,0.8 0.9,1c0.3,0.2 0.7,0.5 1.2,0.8c0.5,0.3 0.9,0.6 1,0.7c0.8,-0.6 1.3,-1 1.6,-1.2c0.3,-0.2 0.6,-0.5 0.9,-0.9c0.4,-0.4 0.6,-0.7 0.7,-1c0.1,-0.3 0.1,-0.7 0.1,-1.3c0,-0.6 -0.4,-1.1 -1,-1.5c-0.7,-0.4 -1.4,-0.6 -2.1,-0.6c-0.1,0 -0.1,0 -0.2,0c-2.3,0.2 -3.5,1.1 -3.5,2.6z" id="svg_86"/>
  </g>
  <g id="svg_87">
   <path d="m166,427.1l0,3.7c0,0.8 0,3.2 0,7l0.1,7c0,0.4 -0.2,0.8 -0.6,1.1c-0.4,0.3 -0.7,0.4 -1.1,0.4c-0.3,0 -0.6,-0.2 -0.8,-0.5c-0.2,-0.3 -0.3,-0.7 -0.3,-1.1c-0.2,-3.6 -0.3,-7.3 -0.3,-11.2c-0.6,0.8 -1.9,1.3 -3.9,1.3c-1.3,0 -2.4,-0.7 -3.3,-2.1c-0.9,-1.4 -1.3,-2.9 -1.3,-4.5c0,-2.1 0.7,-3.7 2,-4.8c1.3,-1.1 3,-1.7 5,-1.7c2,0 3.4,0.8 4.2,2.3c0.2,0.5 0.3,1.5 0.3,3.1zm-3,0.8l0,-1.8c0,-0.6 0,-1 -0.1,-1.2c-0.1,-0.2 -0.2,-0.3 -0.4,-0.4c-0.2,-0.2 -0.4,-0.3 -0.6,-0.3c-0.2,0 -0.5,0 -0.9,0.1c-0.4,0.1 -0.9,0.3 -1.5,0.5c-0.6,0.3 -1.1,0.7 -1.6,1.3c-0.5,0.6 -0.7,1.4 -0.7,2.3s0.2,1.7 0.7,2.4c0.5,0.6 1,0.9 1.5,0.9c0.1,0 0.3,0 0.5,-0.1c1.5,-0.4 2.5,-0.8 3,-1.2l0,-2.5l0.1,0z" id="svg_88"/>
  </g>
  <g id="svg_89">
   <path class="st0" d="m609.9,402.7c0,-3.7 0,-7.4 0,-11.1c0,-4.3 0,-8.5 0.1,-13c0,-6.4 0.1,-13.4 0.1,-22.1c-16,0 -32.5,0.1 -49.1,0.3c0,3.4 0,6.8 0,10.2c0.1,7.8 0.3,13.9 0.5,20.9c0.1,4.2 0.3,8.7 0.4,14.1c12.5,0.1 25,0.3 37.2,0.4c4.1,0.2 7.7,0.3 10.8,0.3z" id="svg_90"/>
   <path class="st0" d="m610.2,344.3c0,-10 0,-20.1 0,-30c-10.6,-0.3 -22.6,-0.5 -31.6,-0.5c-5.3,0 -9.6,0.1 -11.9,0.3c-0.9,0.1 -2.2,0.3 -3.1,1.1c-0.5,0.4 -0.8,1 -1,1.5c-0.1,0.4 -0.2,0.7 -0.2,1.1l0,0.1c-0.7,11.7 -1.2,23.3 -1.3,34.8c16.6,-0.2 33,-0.3 49,-0.2c0,-2.5 0,-5.2 0.1,-8.2z" id="svg_91"/>
   <path class="st0" d="m614.1,344.4c0,2.9 0,5.6 0,8.2c4.5,0 8.9,0 13.3,0c4.6,0 9.1,0 14,0.1c5.4,0 11.2,0.1 17.9,0.1c-0.1,-1.8 -0.1,-3.8 -0.2,-6c-0.2,-10.6 -0.2,-21.3 0.2,-31.7c-5.3,0.1 -15.8,0.2 -25.4,-0.1c-0.2,0 -8.8,-0.3 -19.8,-0.6c0,9.9 0,20 0,30z" id="svg_92"/>
   <path class="st0" d="m663.1,346.7c0,2.3 0.1,4.3 0.2,6.1c4.5,0 9.4,0 14.9,0c10.9,0 21.9,0 32.7,0c-0.2,-11.6 -0.6,-23.3 -1.1,-34.9l0,-0.1c0,-1 -0.4,-1.9 -1.2,-2.6c-0.9,-0.8 -2.2,-1.1 -3.1,-1.2c-10.2,-1 -31,0.4 -31.2,0.4c-2.5,0.2 -5.4,0.3 -11.1,0.4c-0.2,10.6 -0.3,21.2 -0.1,31.9z" id="svg_93"/>
   <path class="st0" d="m599.1,406.5c-12.1,-0.2 -24.6,-0.3 -37,-0.4c0.1,2.5 0.1,5.1 0.2,8c0.2,11.7 0.3,23.6 0.2,35.1c0,1 0.4,1.9 1.2,2.6c1.1,1.1 2.5,1.1 2.9,1.1l0.1,0c14.4,0.4 29,0.8 43.5,0.9c-0.2,-16 -0.3,-31.8 -0.3,-47.2c-3.1,0 -6.7,0 -10.8,-0.1z" id="svg_94"/>
   <path class="st0" d="m678.2,356.8c-5.4,0 -10.3,0 -14.8,0c0.1,2.3 0.2,4.3 0.3,6.2c0.2,4.8 0.5,9.3 0.6,17.2c0.1,7.8 0,12.1 -0.2,21.7c0,0.1 0,0.2 0,0.3c3.2,-0.1 6.8,-0.2 11.5,-0.3c11.9,-0.2 23.9,-0.1 35.5,0.2c0.1,-9.4 0.1,-18.8 0.1,-28.1c0,-5.7 -0.1,-11.4 -0.2,-17.1c-10.8,-0.1 -21.9,-0.1 -32.8,-0.1z" id="svg_95"/>
   <path class="st4" d="m639.7,403c8.4,-0.1 13.2,-0.3 18.3,-0.6c0.7,0 1.4,-0.1 2.1,-0.1c0,-0.2 0,-0.3 0,-0.5c0.2,-9.5 0.3,-13.9 0.2,-21.6c-0.1,-7.8 -0.3,-12.3 -0.6,-17.1c-0.1,-2 -0.2,-4.1 -0.3,-6.4c-6.8,0 -12.6,-0.1 -18.1,-0.1c-4.9,0 -9.4,-0.1 -14,-0.1c-4.4,0 -8.8,0 -13.3,0c0,8.7 -0.1,15.7 -0.1,22.1c0,4.5 -0.1,8.7 -0.1,13c0,3.7 0,7.4 0,11.1c0.9,0 1.8,0 2.6,0c10.3,0.3 15,0.4 23.3,0.3z" id="svg_96"/>
   <path class="st0" d="m675.7,405.8c-4.8,0.1 -8.5,0.2 -11.6,0.3c-0.1,3.3 -0.1,7.2 -0.2,11.9c-0.2,11.8 -0.3,23.8 -0.5,35.9c14.1,-0.2 28.3,-0.5 42.3,-0.9l0.1,0c1.1,0 2.2,-0.4 2.9,-1.1c1.1,-1 1.2,-2.3 1.2,-2.6l0,-0.1c0.6,-14.3 1,-28.7 1.2,-43.1c-11.6,-0.4 -23.6,-0.5 -35.4,-0.3z" id="svg_97"/>
   <path class="st0" d="m659.9,418c0.1,-4.6 0.1,-8.4 0.2,-11.7c-0.6,0 -1.3,0.1 -1.9,0.1c-5.1,0.2 -10,0.5 -18.5,0.6c-8.3,0.1 -13,0 -23.3,-0.2c-0.8,0 -1.7,0 -2.5,0c0,15.4 0.1,31.2 0.3,47.2c6.1,0.1 12.2,0.1 18.3,0.1c9,0 18,0 27,-0.1c0,-12.1 0.2,-24.2 0.4,-36z" id="svg_98"/>
   <path d="m714.7,373.9c-0.1,-18.6 -0.6,-37.5 -1.4,-56.1c0,-1.9 -0.8,-3.8 -2.3,-5.1c-1.8,-1.7 -4.3,-2 -5.1,-2.1c-10.5,-1.1 -30.9,0.4 -31.8,0.4c-2.5,0.2 -5.5,0.3 -11.4,0.4c-0.2,0 -15.3,0.4 -28.7,0c-2.3,-0.1 -56.8,-1.8 -67.6,-0.8c-0.8,0.1 -3.3,0.3 -5.2,2.1c-0.9,0.8 -1.5,1.9 -1.9,3c-0.2,0.7 -0.3,1.4 -0.3,2.1c-1.1,16.5 -1.5,33.1 -1.4,49.2c0.1,7.9 0.3,14 0.5,21c0.2,6.9 0.5,14.7 0.7,26.1c0.2,11.7 0.3,23.5 0.2,35.1c0,2 0.8,3.8 2.3,5.2c2,1.9 4.3,2.1 5.3,2.1c21.8,0.7 44,1 65.8,1.1c1.2,0 2.5,0 3.7,0c23.1,0 46.6,-0.4 69.7,-1.1c2,0 3.9,-0.7 5.3,-2.1c2,-1.9 2.2,-4.2 2.3,-5.1c1,-25 1.4,-50.4 1.3,-75.4zm-3.5,0.1c0.1,9.3 0,18.7 -0.1,28.1c-11.7,-0.4 -23.6,-0.4 -35.5,-0.2c-4.7,0.1 -8.3,0.2 -11.5,0.3c0,-0.1 0,-0.2 0,-0.3c0.2,-9.6 0.3,-13.9 0.2,-21.7c-0.1,-7.9 -0.3,-12.4 -0.6,-17.2c-0.1,-2 -0.2,-4 -0.3,-6.2c4.5,0 9.3,0 14.8,0c11,0 22,0 32.8,0c0.1,5.7 0.2,11.5 0.2,17.2zm-36.8,-59.5c0.2,0 21,-1.5 31.2,-0.4c0.9,0.1 2.2,0.3 3.1,1.2c0.8,0.7 1.2,1.6 1.2,2.6l0,0.1c0.5,11.6 0.9,23.2 1.1,34.9c-10.8,0 -21.8,0 -32.7,0c-5.5,0 -10.4,0 -14.9,0c-0.1,-1.8 -0.1,-3.8 -0.2,-6.1c-0.2,-10.6 -0.1,-21.3 0.2,-31.7c5.5,-0.3 8.4,-0.4 11,-0.6zm-60.5,77.2c0,-4.3 0,-8.5 0.1,-13c0,-6.4 0.1,-13.4 0.1,-22.1c4.5,0 8.9,0 13.3,0c4.6,0 9.1,0 14,0.1c5.4,0 11.2,0.1 18.1,0.1c0.1,2.3 0.2,4.4 0.3,6.4c0.2,4.8 0.4,9.3 0.6,17.1c0.1,7.7 0,12.1 -0.2,21.6c0,0.2 0,0.3 0,0.5c-0.7,0 -1.4,0.1 -2.1,0.1c-5.1,0.2 -9.9,0.4 -18.3,0.6c-8.3,0.1 -13,0 -23.2,-0.2c-0.8,0 -1.7,0 -2.6,0c-0.1,-3.8 -0.1,-7.6 -0.1,-11.2zm20,-76.7c9.6,0.3 20.1,0.2 25.4,0.1c-0.3,10.4 -0.4,21.1 -0.2,31.7c0,2.2 0.1,4.2 0.2,6c-6.8,0 -12.5,-0.1 -17.9,-0.1c-4.9,0 -9.4,-0.1 -14,-0.1c-4.4,0 -8.8,0 -13.3,0c0,-2.6 0,-5.3 0,-8.2c0,-10 0,-20.1 0,-30c11,0.3 19.6,0.6 19.8,0.6zm-71.5,3l0,-0.1c0,-0.4 0.1,-0.7 0.2,-1.1c0.2,-0.6 0.5,-1.1 1,-1.5c0.9,-0.9 2.2,-1.1 3.1,-1.1c2.2,-0.2 6.5,-0.3 11.9,-0.3c9,0 21,0.2 31.6,0.5c0,9.9 0,20 0,30c0,2.9 0,5.6 0,8.2c-16,0 -32.5,0.1 -49,0.2c0,-11.5 0.5,-23.1 1.2,-34.8zm-0.9,70c-0.2,-7 -0.4,-13.1 -0.5,-20.9c0,-3.4 0,-6.8 0,-10.2c16.6,-0.2 33,-0.3 49.1,-0.3c0,8.7 -0.1,15.7 -0.1,22.1c0,4.5 -0.1,8.7 -0.1,13c0,3.7 0,7.4 0,11.1c-3.1,-0.1 -6.6,-0.1 -10.8,-0.2c-12.2,-0.2 -24.7,-0.3 -37.2,-0.4c-0.1,-5.5 -0.2,-10.1 -0.4,-14.2zm5.1,65l0,0c-0.5,0 -1.9,-0.1 -3,-1.1c-0.8,-0.7 -1.2,-1.6 -1.2,-2.6c0,-11.6 0,-23.4 -0.2,-35.1c0,-2.9 -0.1,-5.5 -0.2,-8c12.4,0.1 24.9,0.3 37,0.4c4.1,0.1 7.7,0.1 10.8,0.2c0,15.4 0.1,31.3 0.3,47.2c-14.5,-0.3 -29.1,-0.6 -43.5,-1zm65.8,1.1c-6.1,0 -12.2,0 -18.3,-0.1c-0.2,-16 -0.3,-31.8 -0.3,-47.2c0.9,0 1.7,0 2.5,0c10.3,0.2 15,0.3 23.3,0.2c8.5,-0.1 13.3,-0.3 18.5,-0.6c0.6,0 1.2,-0.1 1.9,-0.1c-0.1,3.3 -0.1,7.1 -0.2,11.7c-0.2,11.8 -0.3,23.9 -0.5,36c-8.9,0 -18,0.1 -26.9,0.1zm77.4,-5l0,0c0,0.4 -0.1,1.7 -1.2,2.7c-0.8,0.7 -1.8,1.1 -2.9,1.1l-0.1,0c-14,0.4 -28.2,0.7 -42.3,0.9c0.1,-12 0.3,-24.1 0.5,-35.9c0.1,-4.7 0.2,-8.6 0.2,-11.9c3.2,-0.1 6.9,-0.2 11.6,-0.3c11.9,-0.2 23.8,-0.1 35.4,0.2c-0.1,14.5 -0.6,28.9 -1.2,43.2z" id="svg_99"/>
  </g>
  <g id="svg_100">
   <path d="m410.5,345.6c0,1.2 -0.7,1.8 -2,1.8c-0.3,0 -0.5,-0.1 -0.7,-0.4c-0.2,-0.2 -0.3,-0.6 -0.3,-1.1l-0.1,-9.4c0,-3.1 0,-6 0.1,-8.7c-0.8,0.7 -1.6,1.6 -2.4,2.5c-0.8,1 -1.3,1.6 -1.6,1.9c-0.3,0.3 -0.7,0.6 -1.1,0.9c-0.5,0.3 -0.9,0.5 -1.3,0.5c-0.4,0 -0.7,-0.1 -0.9,-0.4c-0.2,-0.3 -0.4,-0.6 -0.4,-1c0,-0.4 0.3,-0.9 0.9,-1.6c0.6,-0.7 2.7,-3 6.4,-6.9c0.6,-0.5 1.3,-0.8 2.1,-0.8c0.4,0 0.8,0.1 1,0.4c0.3,0.2 0.4,0.5 0.4,0.8l-0.3,9.9l0.2,11.6z" id="svg_101"/>
  </g>
  <g id="svg_102">
   <path d="m462.9,347.4l-5.4,-0.1c-0.2,0 -0.5,0 -0.7,0c-2.4,0 -3.6,-0.5 -3.6,-1.4c0,-0.7 0.1,-1.3 0.4,-1.9c0.2,-0.6 0.5,-1 0.7,-1.3c0.2,-0.3 0.7,-0.8 1.3,-1.5c0.7,-0.7 1.1,-1.2 1.4,-1.5c0.3,-0.3 1.2,-1.2 2.7,-2.6c1.5,-1.4 2.6,-2.7 3.4,-3.8c0.7,-1.1 1.1,-2.3 1.1,-3.6c0,-1.9 -0.8,-3.2 -2.3,-3.8c-0.4,-0.1 -0.9,-0.2 -1.4,-0.2c-1.1,0 -2.1,0.5 -3.2,1.4c-0.4,0.4 -0.9,0.6 -1.3,0.6c-0.1,0 -0.3,0 -0.4,0c-0.6,-0.1 -0.9,-0.6 -0.9,-1.3c0,-1 0.7,-1.8 2,-2.4c1.4,-0.7 3,-1 4.7,-1c1.7,0 3.1,0.6 4.2,1.9c1.1,1.2 1.6,2.8 1.6,4.6c0,2.6 -0.8,4.9 -2.4,6.8c-0.8,0.9 -1.5,1.7 -2.3,2.5c-2.5,2.4 -4.1,4.2 -5,5.4c1.1,0.1 2.5,0.1 4.1,0.1c1.6,0 3.7,-0.1 6.1,-0.3c0.4,0.1 0.7,0.2 0.9,0.5c0.2,0.3 0.4,0.5 0.4,0.9c0,0.8 -0.4,1.4 -1.3,1.7c-1.1,0.1 -2.6,0.3 -4.8,0.3z" id="svg_103"/>
  </g>
  <g id="svg_104">
   <path d="m510.1,324.5c-1.4,0 -2.8,0.6 -4.1,1.9c-0.3,0.2 -0.7,0.4 -0.9,0.4c-0.3,0 -0.5,0 -0.7,-0.1c-0.6,-0.2 -0.8,-0.6 -0.8,-1.2c0,-1 0.6,-1.9 1.9,-2.7c1.3,-0.8 2.8,-1.1 4.5,-1.1c1.7,0 3.2,0.5 4.4,1.4c1.2,0.9 1.8,2.1 1.8,3.6c0,1.5 -0.2,2.7 -0.5,3.7c-0.3,1 -1.1,1.8 -2.2,2.4c2.6,1 3.9,2.8 3.9,5.3c0,2.2 -0.7,4 -2,5.6c-1.3,1.6 -2.9,2.3 -4.8,2.3c-1.9,0 -3.5,-0.4 -5,-1.3c-1.4,-0.9 -2.1,-1.9 -2.1,-3c0,-0.2 0.1,-0.5 0.4,-0.8c0.2,-0.3 0.6,-0.4 1.1,-0.4c0.5,0 1,0.2 1.5,0.6c0.5,0.4 1.2,0.9 1.8,1.3c0.7,0.4 1.5,0.6 2.3,0.6c2.5,0 3.7,-1.5 3.7,-4.6c0,-1.2 -0.4,-2.1 -1.3,-2.9c-0.8,-0.7 -2,-1.1 -3.6,-1.1c-0.3,0 -0.6,0 -0.7,-0.1c-0.2,0 -0.4,-0.1 -0.6,-0.3c-0.3,-0.2 -0.4,-0.5 -0.4,-0.9c0,-0.9 0.5,-1.4 1.5,-1.4c1,-0.1 1.9,-0.5 2.6,-1.3c0.8,-0.8 1.2,-1.8 1.2,-3.1c0,-0.7 -0.3,-1.3 -0.9,-1.9c-0.5,-0.7 -1.2,-0.9 -2,-0.9z" id="svg_105"/>
  </g>
  <g id="svg_106">
   <path d="m409.6,385.4c-0.9,0.1 -2.1,0.2 -3.8,0.2c-1.6,0 -2.7,-0.3 -3.3,-0.8c-0.6,-0.5 -0.9,-1.7 -0.9,-3.5c0,-1.8 0.1,-3.8 0.4,-6c0.3,-2.2 0.6,-3.8 0.9,-4.8c0.3,-1 1,-1.5 2,-1.5c0.7,0 1,0.3 1.1,0.8c0,0.1 0,0.4 0,0.7c0,0.3 -0.1,0.8 -0.2,1.4c-0.6,4.3 -0.9,7.4 -0.9,9.2c0,0.4 0,0.8 0,1.1c0.4,0.1 1,0.1 1.8,0.1c0.7,0 1.7,-0.1 2.9,-0.2c0,-0.5 0.1,-1.2 0.1,-2.1c0,-0.9 0,-1.6 0,-2.2c0,-0.6 0.1,-1 0.3,-1.3c0.1,-0.2 0.6,-0.4 1.3,-0.4c0.7,0 1.1,0.1 1.3,0.4c0.2,0.2 0.3,0.6 0.3,1c0,0.4 0,1.3 -0.1,2.7c-0.1,1.4 -0.1,5.2 -0.1,11.5c0,1.1 -0.5,1.7 -1.6,1.7c0,0 -0.1,0 -0.1,0c-0.9,0 -1.4,-0.7 -1.4,-2.2l0,-2l0,-3.8z" id="svg_107"/>
  </g>
  <g id="svg_108">
   <path class="st0" d="m458.1,377.6c1,-0.4 2,-0.6 2.9,-0.6c0.9,0 1.8,0.1 2.7,0.4c0.9,0.3 1.7,0.7 2.4,1.4c0.7,0.6 1.3,1.5 1.8,2.5c0.4,1.1 0.7,2.3 0.7,3.7c0,2.4 -0.7,4.3 -2.1,6c-1.4,1.6 -3,2.4 -4.8,2.4s-3.4,-0.4 -4.8,-1.2c-1.4,-0.8 -2,-1.7 -2,-2.7c0,-0.5 0.1,-0.8 0.2,-1.1c0.1,-0.2 0.3,-0.4 0.6,-0.6c0.3,-0.1 0.6,-0.2 0.8,-0.2c0.2,0 0.6,0.1 1,0.4c0.4,0.3 1,0.7 1.7,1.2c0.7,0.5 1.6,0.8 2.5,0.8c1,0 1.8,-0.5 2.5,-1.5c0.7,-1 1.1,-2 1.1,-3.2c0,-3.3 -1.5,-5 -4.5,-5c-0.6,0 -1.4,0.1 -2.2,0.2c-0.8,0.1 -1.4,0.2 -1.7,0.2c-0.3,0 -0.6,-0.1 -1.1,-0.3c-0.5,-0.5 -0.8,-2.1 -0.8,-4.7c0,-2.6 0.1,-4.3 0.2,-5.1c0.1,-0.8 0.3,-1.2 0.6,-1.3c0.5,-0.2 2.1,-0.3 4.6,-0.3c2.6,0 4.6,0.2 6.2,0.7c0.5,0.3 0.7,0.7 0.7,1.3c0,0.6 -0.2,1 -0.5,1.3c-0.3,0.3 -0.6,0.5 -1,0.4c-2,-0.4 -4.1,-0.7 -6.2,-0.7c-0.6,0 -1.3,0 -1.9,0.1c0.3,1.2 0.4,3 0.4,5.5z" id="svg_109"/>
  </g>
  <g id="svg_110">
   <path d="m514.4,370.7c-0.4,0.5 -1.2,2.1 -2.5,4.7c-1.3,2.6 -2,4.2 -2.2,4.7c1,-0.3 2.1,-0.4 3.2,-0.4c1.1,0 2.1,0.3 3,0.9c1.5,1 2.3,2.6 2.3,4.9c0,4.9 -2.4,7.3 -7.1,7.4c0,0 -0.1,0 -0.1,0c-1.7,0 -3,-0.6 -3.8,-1.8c-0.8,-1.2 -1.2,-2.8 -1.3,-4.8c0,-4.7 1.8,-9.8 5.3,-15.4c0.6,-1 1.1,-1.6 1.5,-1.9c0.4,-0.3 0.8,-0.4 1.1,-0.4c0.3,0 0.5,0.1 0.8,0.3c0.3,0.2 0.4,0.5 0.4,0.8c-0.1,0.1 -0.3,0.5 -0.6,1zm1,15c0,-1 -0.3,-1.8 -0.8,-2.3c-0.6,-0.5 -1.3,-0.8 -2.2,-0.8c-0.9,0 -1.6,0.1 -2.1,0.2c-0.3,0.1 -0.6,0.3 -0.8,0.6c-0.2,0.2 -0.4,0.6 -0.5,1.1c-0.2,0.5 -0.2,1.2 -0.2,2c0,0.8 0.2,1.6 0.7,2.2c0.5,0.6 1.1,0.9 1.8,0.9c1.4,0 2.4,-0.4 3.2,-1.2c0.5,-0.8 0.9,-1.7 0.9,-2.7z" id="svg_111"/>
  </g>
  <g id="svg_112">
   <path d="m412.8,429.3l-0.3,11.6c0,0.5 -0.2,0.9 -0.5,1.2c-0.4,0.3 -0.8,0.4 -1.2,0.4c-0.7,0 -1,-0.9 -1,-2.8c0,-3.8 0.1,-7.3 0.3,-10.5l-3.8,0.2c-0.3,0 -0.6,-0.1 -0.8,-0.4c-0.2,-0.3 -0.4,-0.6 -0.4,-0.9c0,-0.9 0.5,-1.3 1.5,-1.3l3.6,0l0.4,-4.5c-0.8,-0.3 -3,-0.7 -6.4,-1.3c-1.3,-0.2 -2.1,-0.4 -2.4,-0.4c-0.6,-0.1 -1,-0.6 -1,-1.4c0,-0.3 0.1,-0.6 0.4,-0.8c0.2,-0.3 0.6,-0.4 1.1,-0.4c0.5,0 2.3,0.3 5.5,0.8c3.2,0.5 5,1 5.4,1.3c0.1,0.1 0.2,0.6 0.2,1.4c0,0.4 -0.1,1.4 -0.3,3c-0.1,1.1 -0.2,1.9 -0.3,2.3l1.8,-0.1c0.2,0 0.4,0 0.8,0c0.4,0 0.7,0.1 1,0.3c0.3,0.2 0.4,0.5 0.4,1c0,0.5 -0.2,0.8 -0.5,1.1c-0.3,0.2 -1,0.4 -2,0.4l-1.5,-0.2z" id="svg_113"/>
  </g>
  <g id="svg_114">
   <path d="m460.9,419.2c1.8,0 3.3,0.4 4.5,1.3c1.2,0.9 1.8,2.1 1.8,3.6c0,2.2 -1.2,4.2 -3.6,5.8c1.4,1.5 2.4,2.8 3,3.9c0.6,1.2 1,2.6 1,4.2c0,1.6 -0.6,3 -1.8,4c-1.3,1.1 -2.9,1.7 -4.9,1.7c-2,0 -3.5,-0.5 -4.6,-1.5c-1.2,-1 -1.7,-2.4 -1.7,-4.2c0,-2.9 1.4,-5.5 4.2,-7.7c-1.1,-0.6 -2,-1.4 -2.7,-2.6c-0.8,-1.2 -1.2,-2.5 -1.2,-3.8c0,-1.3 0.5,-2.4 1.6,-3.3c1.1,-1 2.6,-1.4 4.4,-1.4zm-3.7,18.3c0,0.1 0,0.2 0,0.3c0,1 0.4,1.7 1.2,2.2c0.8,0.5 1.8,0.8 3,0.8c1.1,0 1.9,-0.3 2.4,-0.9c0.5,-0.6 0.7,-1.4 0.7,-2.2c0,-0.9 -0.3,-1.8 -0.9,-2.7c-0.6,-0.9 -1.5,-2 -2.7,-3.2c-1.3,0.9 -2.2,1.8 -2.8,2.8c-0.6,1 -0.9,2 -0.9,2.9zm0.2,-13.2c0,0.5 0.1,1 0.4,1.4c0.3,0.4 0.6,0.8 0.9,1c0.3,0.2 0.7,0.5 1.2,0.8c0.5,0.3 0.9,0.6 1,0.7c0.8,-0.6 1.3,-1 1.6,-1.2c0.3,-0.2 0.6,-0.5 0.9,-0.9c0.4,-0.4 0.6,-0.7 0.7,-1c0.1,-0.3 0.1,-0.7 0.1,-1.3c0,-0.6 -0.4,-1.1 -1,-1.5c-0.7,-0.4 -1.4,-0.6 -2.1,-0.6c-0.1,0 -0.1,0 -0.2,0c-2.3,0.3 -3.5,1.1 -3.5,2.6z" id="svg_115"/>
  </g>
  <g id="svg_116">
   <path d="m516.5,424.8l0,3.7c0,0.8 0,3.2 0,7l0.1,7c0,0.4 -0.2,0.8 -0.6,1.1c-0.4,0.3 -0.7,0.4 -1.1,0.4c-0.3,0 -0.6,-0.2 -0.8,-0.5c-0.2,-0.3 -0.3,-0.7 -0.3,-1.1c-0.2,-3.6 -0.3,-7.3 -0.3,-11.2c-0.6,0.8 -1.9,1.3 -3.9,1.3c-1.3,0 -2.4,-0.7 -3.3,-2.1c-0.9,-1.4 -1.3,-2.9 -1.3,-4.5c0,-2.1 0.7,-3.7 2,-4.8c1.3,-1.1 3,-1.7 5,-1.7c2,0 3.4,0.8 4.2,2.3c0.2,0.5 0.3,1.5 0.3,3.1zm-2.9,0.9l0,-1.8c0,-0.6 0,-1 -0.1,-1.2c-0.1,-0.2 -0.2,-0.3 -0.4,-0.4c-0.2,-0.2 -0.4,-0.3 -0.6,-0.3c-0.2,0 -0.5,0 -0.9,0.1c-0.4,0.1 -0.9,0.3 -1.5,0.5c-0.6,0.3 -1.1,0.7 -1.6,1.3c-0.5,0.6 -0.7,1.4 -0.7,2.3s0.2,1.7 0.7,2.4c0.5,0.6 1,0.9 1.5,0.9c0.1,0 0.3,0 0.5,-0.1c1.5,-0.4 2.5,-0.8 3,-1.2l0,-2.5l0.1,0z" id="svg_117"/>
  </g>
  <g id="svg_129">
   <path d="m585.7,343.7c0,1.2 -0.7,1.8 -2,1.8c-0.3,0 -0.5,-0.1 -0.7,-0.4c-0.2,-0.2 -0.3,-0.6 -0.3,-1.1l-0.1,-9.4c0,-3.1 0,-6 0.1,-8.7c-0.8,0.7 -1.6,1.6 -2.4,2.5c-0.8,1 -1.3,1.6 -1.6,1.9c-0.3,0.3 -0.7,0.6 -1.1,0.9c-0.5,0.3 -0.9,0.5 -1.3,0.5c-0.4,0 -0.7,-0.1 -0.9,-0.4c-0.2,-0.3 -0.4,-0.6 -0.4,-1c0,-0.4 0.3,-0.9 0.9,-1.6c0.6,-0.7 2.7,-3 6.4,-6.9c0.6,-0.5 1.3,-0.8 2.1,-0.8c0.4,0 0.8,0.1 1,0.4c0.3,0.2 0.4,0.5 0.4,0.8l-0.3,9.9l0.2,11.6z" id="svg_130"/>
  </g>
  <g id="svg_131">
   <path d="m638.2,345.5l-5.4,-0.1c-0.2,0 -0.5,0 -0.7,0c-2.4,0 -3.6,-0.5 -3.6,-1.4c0,-0.7 0.1,-1.3 0.4,-1.9c0.2,-0.6 0.5,-1 0.7,-1.3c0.2,-0.3 0.7,-0.8 1.3,-1.5c0.7,-0.7 1.1,-1.2 1.4,-1.5c0.3,-0.3 1.2,-1.2 2.7,-2.6c1.5,-1.4 2.6,-2.7 3.4,-3.8c0.7,-1.1 1.1,-2.3 1.1,-3.6c0,-1.9 -0.8,-3.2 -2.3,-3.8c-0.4,-0.1 -0.9,-0.2 -1.4,-0.2c-1.1,0 -2.1,0.5 -3.2,1.4c-0.4,0.4 -0.9,0.6 -1.3,0.6c-0.1,0 -0.3,0 -0.4,0c-0.6,-0.1 -0.9,-0.6 -0.9,-1.3c0,-1 0.7,-1.8 2,-2.4c1.4,-0.7 3,-1 4.7,-1c1.7,0 3.1,0.6 4.2,1.9c1.1,1.2 1.6,2.8 1.6,4.6c0,2.6 -0.8,4.9 -2.4,6.8c-0.8,0.9 -1.5,1.7 -2.3,2.5c-2.5,2.4 -4.1,4.2 -5,5.4c1.1,0.1 2.5,0.1 4.1,0.1c1.6,0 3.7,-0.1 6.1,-0.3c0.4,0.1 0.7,0.2 0.9,0.5c0.2,0.3 0.4,0.5 0.4,0.9c0,0.8 -0.4,1.4 -1.3,1.7c-1.1,0.2 -2.6,0.3 -4.8,0.3z" id="svg_132"/>
  </g>
  <g id="svg_133">
   <path d="m685.4,322.6c-1.4,0 -2.8,0.6 -4.1,1.9c-0.3,0.2 -0.7,0.4 -0.9,0.4c-0.3,0 -0.5,0 -0.7,-0.1c-0.6,-0.2 -0.8,-0.6 -0.8,-1.2c0,-1 0.6,-1.9 1.9,-2.7c1.3,-0.8 2.8,-1.1 4.5,-1.1c1.7,0 3.2,0.5 4.4,1.4c1.2,0.9 1.8,2.1 1.8,3.6c0,1.5 -0.2,2.7 -0.5,3.7c-0.3,1 -1.1,1.8 -2.2,2.4c2.6,1 3.9,2.8 3.9,5.3c0,2.2 -0.7,4 -2,5.6c-1.3,1.6 -2.9,2.3 -4.8,2.3c-1.9,0 -3.5,-0.4 -5,-1.3c-1.4,-0.9 -2.1,-1.9 -2.1,-3c0,-0.2 0.1,-0.5 0.4,-0.8c0.2,-0.3 0.6,-0.4 1.1,-0.4c0.5,0 1,0.2 1.5,0.6c0.5,0.4 1.2,0.9 1.8,1.3c0.7,0.4 1.5,0.6 2.3,0.6c2.5,0 3.7,-1.5 3.7,-4.6c0,-1.2 -0.4,-2.1 -1.3,-2.9c-0.8,-0.7 -2,-1.1 -3.6,-1.1c-0.3,0 -0.6,0 -0.7,-0.1c-0.2,0 -0.4,-0.1 -0.6,-0.3c-0.3,-0.2 -0.4,-0.5 -0.4,-0.9c0,-0.9 0.5,-1.4 1.5,-1.4c1,-0.1 1.9,-0.5 2.6,-1.3c0.8,-0.8 1.2,-1.8 1.2,-3.1c0,-0.7 -0.3,-1.3 -0.9,-1.9c-0.5,-0.6 -1.2,-0.9 -2,-0.9z" id="svg_134"/>
  </g>
  <g id="svg_135">
   <path d="m584.8,383.6c-0.9,0.1 -2.1,0.2 -3.8,0.2c-1.6,0 -2.7,-0.3 -3.3,-0.8c-0.6,-0.5 -0.9,-1.7 -0.9,-3.5s0.1,-3.8 0.4,-6c0.3,-2.2 0.6,-3.8 0.9,-4.8c0.3,-1 1,-1.5 2,-1.5c0.7,0 1,0.3 1.1,0.8c0,0.1 0,0.4 0,0.7c0,0.3 -0.1,0.8 -0.2,1.4c-0.6,4.3 -0.9,7.4 -0.9,9.2c0,0.4 0,0.8 0,1.1c0.4,0.1 1,0.1 1.8,0.1c0.7,0 1.7,-0.1 2.9,-0.2c0,-0.5 0.1,-1.2 0.1,-2.1c0,-0.9 0,-1.6 0,-2.2c0,-0.6 0.1,-1 0.3,-1.3c0.1,-0.2 0.6,-0.4 1.3,-0.4s1.1,0.1 1.3,0.4c0.2,0.2 0.3,0.6 0.3,1c0,0.4 0,1.3 -0.1,2.7c-0.1,1.4 -0.1,5.2 -0.1,11.5c0,1.1 -0.5,1.7 -1.6,1.7c0,0 -0.1,0 -0.1,0c-0.9,0 -1.4,-0.7 -1.4,-2.2l0,-2l0,-3.8z" id="svg_136"/>
  </g>
  <g id="svg_137">
   <path class="st0" d="m633.4,375.8c1,-0.4 2,-0.6 2.9,-0.6c0.9,0 1.8,0.1 2.7,0.4c0.9,0.3 1.7,0.7 2.4,1.4c0.7,0.6 1.3,1.5 1.8,2.5c0.4,1.1 0.7,2.3 0.7,3.7c0,2.4 -0.7,4.3 -2.1,6c-1.4,1.6 -3,2.4 -4.8,2.4s-3.4,-0.4 -4.8,-1.2c-1.4,-0.8 -2,-1.7 -2,-2.7c0,-0.5 0.1,-0.8 0.2,-1.1c0.1,-0.2 0.3,-0.4 0.6,-0.6c0.3,-0.1 0.6,-0.2 0.8,-0.2c0.2,0 0.6,0.1 1,0.4c0.4,0.3 1,0.7 1.7,1.2c0.7,0.5 1.6,0.8 2.5,0.8c1,0 1.8,-0.5 2.5,-1.5c0.7,-1 1.1,-2 1.1,-3.2c0,-3.3 -1.5,-5 -4.5,-5c-0.6,0 -1.4,0.1 -2.2,0.2c-0.8,0.1 -1.4,0.2 -1.7,0.2c-0.3,0 -0.6,-0.1 -1.1,-0.3c-0.5,-0.5 -0.8,-2.1 -0.8,-4.7c0,-2.6 0.1,-4.3 0.2,-5.1c0.1,-0.8 0.3,-1.2 0.6,-1.3c0.5,-0.2 2.1,-0.3 4.6,-0.3c2.6,0 4.6,0.2 6.2,0.7c0.5,0.3 0.7,0.7 0.7,1.3s-0.2,1 -0.5,1.3c-0.3,0.3 -0.6,0.5 -1,0.4c-2,-0.4 -4.1,-0.7 -6.2,-0.7c-0.6,0 -1.3,0 -1.9,0.1c0.3,1.2 0.3,3 0.4,5.5z" id="svg_138"/>
  </g>
  <g id="svg_139">
   <path d="m689.6,368.9c-0.4,0.5 -1.2,2.1 -2.5,4.7c-1.3,2.6 -2,4.2 -2.2,4.7c1,-0.3 2.1,-0.4 3.2,-0.4c1.1,0 2.1,0.3 3,0.9c1.5,1 2.3,2.6 2.3,4.9c0,4.9 -2.4,7.3 -7.1,7.4c0,0 -0.1,0 -0.1,0c-1.7,0 -3,-0.6 -3.8,-1.8c-0.8,-1.2 -1.2,-2.8 -1.3,-4.8c0,-4.7 1.8,-9.8 5.3,-15.4c0.6,-1 1.1,-1.6 1.5,-1.9s0.8,-0.4 1.1,-0.4c0.3,0 0.5,0.1 0.8,0.3c0.3,0.2 0.4,0.5 0.4,0.8c0,0.1 -0.2,0.5 -0.6,1zm1,15c0,-1 -0.3,-1.8 -0.8,-2.3c-0.6,-0.5 -1.3,-0.8 -2.2,-0.8c-0.9,0 -1.6,0.1 -2.1,0.2c-0.3,0.1 -0.6,0.3 -0.8,0.6c-0.2,0.2 -0.4,0.6 -0.5,1.1c-0.2,0.5 -0.2,1.2 -0.2,2c0,0.8 0.2,1.6 0.7,2.2c0.5,0.6 1.1,0.9 1.8,0.9c1.4,0 2.4,-0.4 3.2,-1.2c0.6,-0.8 0.9,-1.7 0.9,-2.7z" id="svg_140"/>
  </g>
  <g id="svg_141">
   <path d="m588.1,427.5l-0.3,11.6c0,0.5 -0.2,0.9 -0.5,1.2c-0.4,0.3 -0.8,0.4 -1.2,0.4c-0.7,0 -1,-0.9 -1,-2.8c0,-3.8 0.1,-7.3 0.3,-10.5l-3.8,0.2c-0.3,0 -0.6,-0.1 -0.8,-0.4c-0.2,-0.3 -0.4,-0.6 -0.4,-0.9c0,-0.9 0.5,-1.3 1.5,-1.3l3.6,0l0.4,-4.5c-0.8,-0.3 -3,-0.7 -6.4,-1.3c-1.3,-0.2 -2.1,-0.4 -2.4,-0.4c-0.6,-0.1 -1,-0.6 -1,-1.4c0,-0.3 0.1,-0.6 0.4,-0.8c0.2,-0.3 0.6,-0.4 1.1,-0.4c0.5,0 2.3,0.3 5.5,0.8c3.2,0.5 5,1 5.4,1.3c0.1,0.1 0.2,0.6 0.2,1.4c0,0.4 -0.1,1.4 -0.3,3c-0.1,1.1 -0.2,1.9 -0.3,2.3l1.8,-0.1c0.2,0 0.4,0 0.8,0c0.4,0 0.7,0.1 1,0.3c0.3,0.2 0.4,0.5 0.4,1c0,0.5 -0.2,0.8 -0.5,1.1c-0.3,0.2 -1,0.4 -2,0.4l-1.5,-0.2z" id="svg_142"/>
  </g>
  <g id="svg_143">
   <path d="m636.2,417.4c1.8,0 3.3,0.4 4.5,1.3c1.2,0.9 1.8,2.1 1.8,3.6c0,2.2 -1.2,4.2 -3.6,5.8c1.4,1.5 2.4,2.8 3,3.9c0.6,1.2 1,2.6 1,4.2c0,1.6 -0.6,3 -1.8,4c-1.3,1.1 -2.9,1.7 -4.9,1.7c-2,0 -3.5,-0.5 -4.6,-1.5c-1.2,-1 -1.7,-2.4 -1.7,-4.2c0,-2.9 1.4,-5.5 4.2,-7.7c-1.1,-0.6 -2,-1.4 -2.7,-2.6c-0.8,-1.2 -1.2,-2.5 -1.2,-3.8c0,-1.3 0.5,-2.4 1.6,-3.3c1.1,-1 2.6,-1.4 4.4,-1.4zm-3.7,18.3c0,0.1 0,0.2 0,0.3c0,1 0.4,1.7 1.2,2.2c0.8,0.5 1.8,0.8 3,0.8c1.1,0 1.9,-0.3 2.4,-0.9c0.5,-0.6 0.7,-1.4 0.7,-2.2c0,-0.9 -0.3,-1.8 -0.9,-2.7c-0.6,-0.9 -1.5,-2 -2.7,-3.2c-1.3,0.9 -2.2,1.8 -2.8,2.8c-0.6,1 -0.9,2 -0.9,2.9zm0.2,-13.2c0,0.5 0.1,1 0.4,1.4c0.3,0.4 0.6,0.8 0.9,1c0.3,0.2 0.7,0.5 1.2,0.8c0.5,0.3 0.9,0.6 1,0.7c0.8,-0.6 1.3,-1 1.6,-1.2c0.3,-0.2 0.6,-0.5 0.9,-0.9c0.4,-0.4 0.6,-0.7 0.7,-1c0.1,-0.3 0.1,-0.7 0.1,-1.3c0,-0.6 -0.4,-1.1 -1,-1.5c-0.7,-0.4 -1.4,-0.6 -2.1,-0.6c-0.1,0 -0.1,0 -0.2,0c-2.3,0.2 -3.5,1.1 -3.5,2.6z" id="svg_144"/>
  </g>
  <g id="svg_145">
   <path d="m691.8,423l0,3.7c0,0.8 0,3.2 0,7l0.1,7c0,0.4 -0.2,0.8 -0.6,1.1c-0.4,0.3 -0.7,0.4 -1.1,0.4c-0.3,0 -0.6,-0.2 -0.8,-0.5c-0.2,-0.3 -0.3,-0.7 -0.3,-1.1c-0.2,-3.6 -0.3,-7.3 -0.3,-11.2c-0.6,0.8 -1.9,1.3 -3.9,1.3c-1.3,0 -2.4,-0.7 -3.3,-2.1c-0.9,-1.4 -1.3,-2.9 -1.3,-4.5c0,-2.1 0.7,-3.7 2,-4.8c1.3,-1.1 3,-1.7 5,-1.7c2,0 3.4,0.8 4.2,2.3c0.2,0.5 0.3,1.5 0.3,3.1zm-2.9,0.8l0,-1.8c0,-0.6 0,-1 -0.1,-1.2c-0.1,-0.2 -0.2,-0.3 -0.4,-0.4c-0.2,-0.2 -0.4,-0.3 -0.6,-0.3c-0.2,0 -0.5,0 -0.9,0.1c-0.4,0.1 -0.9,0.3 -1.5,0.5c-0.6,0.3 -1.1,0.7 -1.6,1.3c-0.5,0.6 -0.7,1.4 -0.7,2.3c0,1 0.2,1.7 0.7,2.4c0.5,0.6 1,0.9 1.5,0.9c0.1,0 0.3,0 0.5,-0.1c1.5,-0.4 2.5,-0.8 3,-1.2l0,-2.5l0.1,0z" id="svg_146"/>
  </g>
  <g id="svg_158">
   <path d="m235.8,501.7c0,1.2 -0.7,1.8 -2,1.8c-0.3,0 -0.5,-0.1 -0.7,-0.4c-0.2,-0.2 -0.3,-0.6 -0.3,-1.1l-0.1,-9.4c0,-3.1 0,-6 0.1,-8.7c-0.8,0.7 -1.6,1.6 -2.4,2.5c-0.8,1 -1.3,1.6 -1.6,1.9c-0.3,0.3 -0.7,0.6 -1.1,0.9c-0.5,0.3 -0.9,0.5 -1.3,0.5c-0.4,0 -0.7,-0.1 -0.9,-0.4c-0.2,-0.3 -0.4,-0.6 -0.4,-1c0,-0.4 0.3,-0.9 0.9,-1.6c0.6,-0.7 2.7,-3 6.4,-6.9c0.6,-0.5 1.3,-0.8 2.1,-0.8c0.4,0 0.8,0.1 1,0.4c0.3,0.2 0.4,0.5 0.4,0.8l-0.3,9.9l0.2,11.6z" id="svg_159"/>
  </g>
  <g id="svg_160">
   <path d="m288.2,503.5l-5.4,-0.1c-0.2,0 -0.5,0 -0.7,0c-2.4,0 -3.6,-0.5 -3.6,-1.4c0,-0.7 0.1,-1.3 0.4,-1.9c0.2,-0.6 0.5,-1 0.7,-1.3c0.2,-0.3 0.7,-0.8 1.3,-1.5c0.7,-0.7 1.1,-1.2 1.4,-1.5c0.3,-0.3 1.2,-1.2 2.7,-2.6c1.5,-1.4 2.6,-2.7 3.4,-3.8c0.7,-1.1 1.1,-2.3 1.1,-3.6c0,-1.9 -0.8,-3.2 -2.3,-3.8c-0.4,-0.1 -0.9,-0.2 -1.4,-0.2c-1.1,0 -2.1,0.5 -3.2,1.4c-0.4,0.4 -0.9,0.6 -1.3,0.6c-0.1,0 -0.3,0 -0.4,0c-0.6,-0.1 -0.9,-0.6 -0.9,-1.3c0,-1 0.7,-1.8 2,-2.4c1.4,-0.7 3,-1 4.7,-1c1.7,0 3.1,0.6 4.2,1.9c1.1,1.2 1.6,2.8 1.6,4.6c0,2.6 -0.8,4.9 -2.4,6.8c-0.8,0.9 -1.5,1.7 -2.3,2.5c-2.5,2.4 -4.1,4.2 -5,5.4c1.1,0.1 2.5,0.1 4.1,0.1c1.6,0 3.7,-0.1 6.1,-0.3c0.4,0.1 0.7,0.2 0.9,0.5c0.2,0.3 0.4,0.5 0.4,0.9c0,0.8 -0.4,1.4 -1.3,1.7c-1,0.2 -2.5,0.3 -4.8,0.3z" id="svg_161"/>
  </g>
  <g id="svg_162">
   <path d="m335.5,480.6c-1.4,0 -2.8,0.6 -4.1,1.9c-0.3,0.2 -0.7,0.4 -0.9,0.4c-0.3,0 -0.5,0 -0.7,-0.1c-0.6,-0.2 -0.8,-0.6 -0.8,-1.2c0,-1 0.6,-1.9 1.9,-2.7c1.3,-0.8 2.8,-1.1 4.5,-1.1c1.7,0 3.2,0.5 4.4,1.4c1.2,0.9 1.8,2.1 1.8,3.6c0,1.5 -0.2,2.7 -0.5,3.7c-0.3,1 -1.1,1.8 -2.2,2.4c2.6,1 3.9,2.8 3.9,5.3c0,2.2 -0.7,4 -2,5.6c-1.3,1.6 -2.9,2.3 -4.8,2.3c-1.9,0 -3.5,-0.4 -5,-1.3c-1.4,-0.9 -2.1,-1.9 -2.1,-3c0,-0.2 0.1,-0.5 0.4,-0.8c0.2,-0.3 0.6,-0.4 1.1,-0.4c0.5,0 1,0.2 1.5,0.6c0.5,0.4 1.2,0.9 1.8,1.3c0.7,0.4 1.5,0.6 2.3,0.6c2.5,0 3.7,-1.5 3.7,-4.6c0,-1.2 -0.4,-2.1 -1.3,-2.9c-0.8,-0.7 -2,-1.1 -3.6,-1.1c-0.3,0 -0.6,0 -0.7,-0.1c-0.2,0 -0.4,-0.1 -0.6,-0.3c-0.3,-0.2 -0.4,-0.5 -0.4,-0.9c0,-0.9 0.5,-1.4 1.5,-1.4c1,-0.1 1.9,-0.5 2.6,-1.3c0.8,-0.8 1.2,-1.8 1.2,-3.1c0,-0.7 -0.3,-1.3 -0.9,-1.9c-0.5,-0.6 -1.2,-0.9 -2,-0.9z" id="svg_163"/>
  </g>
  <g id="svg_164">
   <path d="m234.9,541.6c-0.9,0.1 -2.1,0.2 -3.8,0.2c-1.6,0 -2.7,-0.3 -3.3,-0.8c-0.6,-0.5 -0.9,-1.7 -0.9,-3.5c0,-1.8 0.1,-3.8 0.4,-6c0.3,-2.2 0.6,-3.8 0.9,-4.8c0.3,-1 1,-1.5 2,-1.5c0.7,0 1,0.3 1.1,0.8c0,0.1 0,0.4 0,0.7c0,0.3 -0.1,0.8 -0.2,1.4c-0.6,4.3 -0.9,7.4 -0.9,9.2c0,0.4 0,0.8 0,1.1c0.4,0.1 1,0.1 1.8,0.1c0.7,0 1.7,-0.1 2.9,-0.2c0,-0.5 0.1,-1.2 0.1,-2.1c0,-0.9 0,-1.6 0,-2.2c0,-0.6 0.1,-1 0.3,-1.3c0.1,-0.2 0.6,-0.4 1.3,-0.4c0.7,0 1.1,0.1 1.3,0.4c0.2,0.2 0.3,0.6 0.3,1c0,0.4 0,1.3 -0.1,2.7c-0.1,1.4 -0.1,5.2 -0.1,11.5c0,1.1 -0.5,1.7 -1.6,1.7c0,0 -0.1,0 -0.1,0c-0.9,0 -1.4,-0.7 -1.4,-2.2l0,-2l0,-3.8z" id="svg_165"/>
  </g>
  <g id="svg_166">
   <path class="st0" d="m282.5,147.8c1,-0.4 2,-0.6 2.9,-0.6c0.9,0 1.8,0.1 2.7,0.4c0.9,0.3 1.7,0.7 2.4,1.4c0.7,0.6 1.3,1.5 1.8,2.5c0.4,1.1 0.7,2.3 0.7,3.7c0,2.4 -0.7,4.3 -2.1,6c-1.4,1.6 -3,2.4 -4.8,2.4s-3.4,-0.4 -4.8,-1.2c-1.4,-0.8 -2,-1.7 -2,-2.7c0,-0.5 0.1,-0.8 0.2,-1.1c0.1,-0.2 0.3,-0.4 0.6,-0.6c0.3,-0.1 0.6,-0.2 0.8,-0.2c0.2,0 0.6,0.1 1,0.4c0.4,0.3 1,0.7 1.7,1.2c0.7,0.5 1.6,0.8 2.5,0.8c1,0 1.8,-0.5 2.5,-1.5c0.7,-1 1.1,-2 1.1,-3.2c0,-3.3 -1.5,-5 -4.5,-5c-0.6,0 -1.4,0.1 -2.2,0.2c-0.8,0.1 -1.4,0.2 -1.7,0.2c-0.3,0 -0.6,-0.1 -1.1,-0.3c-0.5,-0.5 -0.8,-2.1 -0.8,-4.7c0,-2.6 0.1,-4.3 0.2,-5.1c0.1,-0.8 0.3,-1.2 0.6,-1.3c0.5,-0.2 2.1,-0.3 4.6,-0.3c2.6,0 4.6,0.2 6.2,0.7c0.5,0.3 0.7,0.7 0.7,1.3s-0.2,1 -0.5,1.3c-0.3,0.3 -0.6,0.5 -1,0.4c-2,-0.4 -4.1,-0.7 -6.2,-0.7c-0.6,0 -1.3,0 -1.9,0.1c0.3,1.2 0.3,2.9 0.4,5.5z" id="svg_167"/>
  </g>
  <g id="svg_168">
   <path d="m339.7,526.9c-0.4,0.5 -1.2,2.1 -2.5,4.7c-1.3,2.6 -2,4.2 -2.2,4.7c1,-0.3 2.1,-0.4 3.2,-0.4c1.1,0 2.1,0.3 3,0.9c1.5,1 2.3,2.6 2.3,4.9c0,4.9 -2.4,7.3 -7.1,7.4c0,0 -0.1,0 -0.1,0c-1.7,0 -3,-0.6 -3.8,-1.8c-0.8,-1.2 -1.2,-2.8 -1.3,-4.8c0,-4.7 1.8,-9.8 5.3,-15.4c0.6,-1 1.1,-1.6 1.5,-1.9c0.4,-0.3 0.8,-0.4 1.1,-0.4c0.3,0 0.5,0.1 0.8,0.3c0.3,0.2 0.4,0.5 0.4,0.8c0,0.1 -0.2,0.5 -0.6,1zm1,15c0,-1 -0.3,-1.8 -0.8,-2.3c-0.6,-0.5 -1.3,-0.8 -2.2,-0.8c-0.9,0 -1.6,0.1 -2.1,0.2c-0.3,0.1 -0.6,0.3 -0.8,0.6c-0.2,0.2 -0.4,0.6 -0.5,1.1c-0.2,0.5 -0.2,1.2 -0.2,2c0,0.8 0.2,1.6 0.7,2.2c0.5,0.6 1.1,0.9 1.8,0.9c1.4,0 2.4,-0.4 3.2,-1.2c0.6,-0.8 0.9,-1.7 0.9,-2.7z" id="svg_169"/>
  </g>
  <g id="svg_170">
   <path d="m238.1,585.5l-0.3,11.6c0,0.5 -0.2,0.9 -0.5,1.2c-0.4,0.3 -0.8,0.4 -1.2,0.4c-0.7,0 -1,-0.9 -1,-2.8c0,-3.8 0.1,-7.3 0.3,-10.5l-3.8,0.2c-0.3,0 -0.6,-0.1 -0.8,-0.4c-0.2,-0.3 -0.4,-0.6 -0.4,-0.9c0,-0.9 0.5,-1.3 1.5,-1.3l3.6,0l0.4,-4.5c-0.8,-0.3 -3,-0.7 -6.4,-1.3c-1.3,-0.2 -2.1,-0.4 -2.4,-0.4c-0.6,-0.1 -1,-0.6 -1,-1.4c0,-0.3 0.1,-0.6 0.4,-0.8c0.2,-0.3 0.6,-0.4 1.1,-0.4c0.5,0 2.3,0.3 5.5,0.8c3.2,0.5 5,1 5.4,1.3c0.1,0.1 0.2,0.6 0.2,1.4c0,0.4 -0.1,1.4 -0.3,3c-0.1,1.1 -0.2,1.9 -0.3,2.3l1.8,-0.1c0.2,0 0.4,0 0.8,0c0.4,0 0.7,0.1 1,0.3c0.3,0.2 0.4,0.5 0.4,1c0,0.5 -0.2,0.8 -0.5,1.1c-0.3,0.2 -1,0.4 -2,0.4l-1.5,-0.2z" id="svg_171"/>
  </g>
  <g id="svg_172">
   <path d="m286.2,575.4c1.8,0 3.3,0.4 4.5,1.3c1.2,0.9 1.8,2.1 1.8,3.6c0,2.2 -1.2,4.2 -3.6,5.8c1.4,1.5 2.4,2.8 3,3.9c0.6,1.2 1,2.6 1,4.2c0,1.6 -0.6,3 -1.8,4c-1.3,1.1 -2.9,1.7 -4.9,1.7c-2,0 -3.5,-0.5 -4.6,-1.5c-1.2,-1 -1.7,-2.4 -1.7,-4.2c0,-2.9 1.4,-5.5 4.2,-7.7c-1.1,-0.6 -2,-1.4 -2.7,-2.6c-0.8,-1.2 -1.2,-2.5 -1.2,-3.8c0,-1.3 0.5,-2.4 1.6,-3.3c1.2,-1 2.7,-1.4 4.4,-1.4zm-3.6,18.3c0,0.1 0,0.2 0,0.3c0,1 0.4,1.7 1.2,2.2c0.8,0.5 1.8,0.8 3,0.8c1.1,0 1.9,-0.3 2.4,-0.9c0.5,-0.6 0.7,-1.4 0.7,-2.2c0,-0.9 -0.3,-1.8 -0.9,-2.7c-0.6,-0.9 -1.5,-2 -2.7,-3.2c-1.3,0.9 -2.2,1.8 -2.8,2.8c-0.6,1 -0.9,1.9 -0.9,2.9zm0.2,-13.2c0,0.5 0.1,1 0.4,1.4c0.3,0.4 0.6,0.8 0.9,1c0.3,0.2 0.7,0.5 1.2,0.8c0.5,0.3 0.9,0.6 1,0.7c0.8,-0.6 1.3,-1 1.6,-1.2c0.3,-0.2 0.6,-0.5 0.9,-0.9c0.4,-0.4 0.6,-0.7 0.7,-1c0.1,-0.3 0.1,-0.7 0.1,-1.3c0,-0.6 -0.4,-1.1 -1,-1.5c-0.7,-0.4 -1.4,-0.6 -2.1,-0.6c-0.1,0 -0.1,0 -0.2,0c-2.3,0.2 -3.5,1.1 -3.5,2.6z" id="svg_173"/>
  </g>
  <g id="svg_174">
   <path d="m341.9,580.9l0,3.7c0,0.8 0,3.2 0,7l0.1,7c0,0.4 -0.2,0.8 -0.6,1.1c-0.4,0.3 -0.7,0.4 -1.1,0.4c-0.3,0 -0.6,-0.2 -0.8,-0.5c-0.2,-0.3 -0.3,-0.7 -0.3,-1.1c-0.2,-3.6 -0.3,-7.3 -0.3,-11.2c-0.6,0.8 -1.9,1.3 -3.9,1.3c-1.3,0 -2.4,-0.7 -3.3,-2.1c-0.9,-1.4 -1.3,-2.9 -1.3,-4.5c0,-2.1 0.7,-3.7 2,-4.8c1.3,-1.1 3,-1.7 5,-1.7c2,0 3.4,0.8 4.2,2.3c0.2,0.5 0.3,1.6 0.3,3.1zm-3,0.9l0,-1.8c0,-0.6 0,-1 -0.1,-1.2c-0.1,-0.2 -0.2,-0.3 -0.4,-0.4c-0.2,-0.2 -0.4,-0.3 -0.6,-0.3c-0.2,0 -0.5,0 -0.9,0.1c-0.4,0.1 -0.9,0.3 -1.5,0.5c-0.6,0.3 -1.1,0.7 -1.6,1.3c-0.5,0.6 -0.7,1.4 -0.7,2.3c0,1 0.2,1.7 0.7,2.4c0.5,0.6 1,0.9 1.5,0.9c0.1,0 0.3,0 0.5,-0.1c1.5,-0.4 2.5,-0.8 3,-1.2l0,-2.5l0.1,0z" id="svg_175"/>
  </g>
  <g id="svg_176">
   <path d="m241.1,18.1l30,-0.4c1.4,0.4 2.1,1.2 2.1,2.1c0,2.5 -1,3.7 -3,3.7c-3.7,0 -7.6,0.1 -11.8,0.3c-0.2,4.2 -0.4,7.4 -0.4,9.6s0,3.5 0,4.1l0.3,26c0,1.5 -0.4,2.4 -1.2,2.7c-0.6,0.2 -1.3,0.3 -2.2,0.3c-1.4,0 -2.2,-0.8 -2.4,-2.4c-0.3,-3.8 -0.4,-10.9 -0.4,-21.3c0,-10.4 0.1,-16.6 0.4,-18.8c-1,0 -2.6,0.1 -4.6,0.1c-2,0 -4.5,0 -7.5,-0.1c-0.8,0 -1.4,-0.2 -1.8,-0.7c-0.4,-0.5 -0.7,-1.1 -0.7,-1.8c0,-0.7 0.3,-1.4 0.9,-2.1c0.7,-0.9 1.4,-1.2 2.3,-1.3z" id="svg_177" fill="#ffffff"/>
   <path d="m290,32.3c3.7,0 6.6,1.4 8.8,4.2c2.2,2.8 3.4,6.7 3.4,11.5c0,4.9 -1.2,9.1 -3.7,12.7c-2.5,3.6 -5.6,5.3 -9.4,5.3c-4.1,0 -7.5,-1.8 -10.1,-5.3c-2.6,-3.6 -3.9,-7.9 -3.9,-13c0,-5.1 1.4,-9 4.1,-11.5c2.6,-2.7 6.3,-3.9 10.8,-3.9zm6.9,16.5c0,-3.9 -0.6,-6.8 -1.7,-8.7s-3.1,-2.8 -6,-2.8s-5.1,0.9 -6.7,2.6c-1.6,1.8 -2.4,4.2 -2.4,7.5c0,3.2 0.8,6.2 2.5,9c1.7,2.8 4,4.1 7,4.1c1.7,0 3.1,-0.7 4.3,-2.1c2,-2.4 3,-5.6 3,-9.6z" id="svg_178" fill="#ffffff"/>
   <path d="m317.7,31.9c3.6,0 6.4,0.8 8.5,2.3c2.1,1.6 3.2,3.6 3.2,6.3c0,4 -1.3,7 -3.8,9c-1.8,1.4 -4.3,2.1 -7.4,2.1c-1.2,0 -2.5,-0.1 -3.8,-0.3c0.1,2.9 0.2,5.4 0.2,7.6s0,4 -0.1,5.6c-0.1,1.1 -0.8,1.7 -2.1,1.7s-2.2,-0.3 -2.6,-0.8c-0.4,-0.5 -0.6,-1.4 -0.6,-2.4l0,-28c0,-2.1 2.9,-3.1 8.5,-3.1zm-3.4,5.2c-0.1,1.5 -0.1,3.1 -0.1,4.8c0,1.7 0,3 0,4c1.3,0.1 2.7,0.2 4.3,0.2c1.6,0 2.9,-0.3 3.9,-0.9c1.4,-0.8 2.1,-2.3 2.1,-4.4c0,-0.2 0,-0.4 0,-0.7c-0.1,-1.3 -1.3,-2.2 -3.6,-2.8c-1.3,-0.3 -2.5,-0.5 -3.6,-0.5c-1,0 -2,0.1 -3,0.3z" id="svg_179" fill="#ffffff"/>
  </g>
  <g id="svg_180">
   <path d="m56.5,289.7l0.1,-5.8l0.7,-30.9c0,-0.6 0.3,-1.1 1,-1.4c0.6,-0.3 1.5,-0.5 2.4,-0.5c2.4,0 3.6,0.8 3.6,2.5c0,0.5 -0.3,4.7 -0.9,12.4c-0.6,7.7 -0.9,12.4 -0.9,13.9l0,7.8c0,3.7 0.2,5.7 0.7,6.1c0.7,0.2 1.6,0.4 2.6,0.4l10.7,-0.7c2.3,0 3.5,0.8 3.5,2.5c0,1.3 -0.6,2.3 -1.9,2.9c-1.3,0.6 -2.5,1 -3.7,1c-1.2,0.1 -2.7,0.1 -4.5,0.1c-7.7,0 -11.9,-0.2 -12.6,-0.7c-0.3,-0.3 -0.5,-1.4 -0.6,-3.4c0,-1.9 -0.1,-3.3 -0.1,-4.1c-0.1,-0.8 -0.1,-1.5 -0.1,-2.1z" id="svg_181" fill="#ffffff"/>
   <path d="m91,283.3l0.1,9.7c0,1.3 0,2 -0.1,2.1l12.8,-0.2c1.4,0.1 2.1,0.8 2.1,1.9c0,2.1 -1,3.1 -2.9,3.1l-14.4,0.1c-0.9,0 -1.5,-0.3 -2,-0.9c-0.4,-0.6 -0.7,-1.3 -0.7,-2c0,-0.7 -0.1,-1.5 -0.1,-2.3l0,-12.3c-0.6,-0.3 -1,-0.9 -1,-1.6c0,-0.7 0.3,-1.3 0.8,-1.9c-0.1,-3.8 -0.2,-7.4 -0.2,-10.5c0,-1.8 1.1,-2.8 3.3,-2.8c0.6,0 1.3,0 2.1,0l13,0.2l0.1,0c1.6,0.2 2.4,0.9 2.4,2.2c0,1 -0.3,1.7 -0.9,2c-1.3,0.7 -4.4,1 -9.3,1c-1.8,0 -3.7,-0.1 -5.5,-0.2c0,4.4 0,6.9 0.1,7.5c1.9,0 5.7,0.1 11.3,0.1c1.5,0.2 2.3,0.9 2.3,2.1c0,0.6 -0.2,1.2 -0.7,1.7c-0.5,0.5 -1,0.9 -1.6,0.9c-0.6,0.1 -1.8,0.1 -3.6,0.1s-4.3,0.1 -7.4,0z" id="svg_182" fill="#ffffff"/>
   <path d="m128.5,284.3l-9.2,0c0,4.6 0.1,8.7 0.2,12.3c0,2.3 -0.8,3.5 -2.3,3.5s-2.4,-0.9 -2.7,-2.8c-0.1,-0.4 -0.1,-2.5 -0.1,-6.1l0,-11.7c0,-4.2 0,-7 -0.1,-8.3c-1.3,-0.1 -1.9,-1.1 -1.9,-2.8c0,-0.4 0.2,-0.9 0.7,-1.5c0.6,-0.7 1.2,-1.1 1.8,-1.1c0.6,0 1.7,0.1 3.3,0.2c1.6,0.1 5.3,0.2 11,0.2c2.9,0 4.3,0.8 4.3,2.4c0,1.2 -0.4,1.9 -1.2,2.1c-0.2,0.1 -0.4,0.2 -0.5,0.3c-0.1,0.1 -0.3,0.1 -0.7,0.1c-0.3,0 -0.5,0 -0.6,0c-0.2,0.1 -0.8,0.2 -1.7,0.2c-0.9,0 -2.2,0.1 -3.8,0.1c-1.6,0 -3.5,-0.1 -5.7,-0.2l0,8l9.6,0c0.4,0 0.9,0.2 1.3,0.7c0.4,0.5 0.7,1.1 0.7,1.7s-0.2,1.3 -0.6,1.8c-0.4,0.7 -1,0.9 -1.8,0.9z" id="svg_183" fill="#ffffff"/>
   <path d="m153.8,270.3l-0.1,17.5c0,3.7 0,6.9 0.1,9.6c0,0.7 -0.3,1.3 -0.9,1.8c-0.7,0.5 -1.3,0.7 -2,0.7c-1.3,0 -1.9,-0.7 -1.9,-2.1c-0.1,-5.4 -0.2,-10.5 -0.2,-15.4c0,-4.9 0.1,-8.9 0.4,-12c-3,0.2 -6,0.4 -9,0.4c-1.5,0 -2.3,-0.6 -2.3,-1.9c0,-0.6 0.3,-1.2 0.9,-1.8c0.6,-0.6 1.2,-0.9 1.9,-1l23.1,-0.7c1.3,0.3 2,0.9 2,1.9c0,2 -2.3,3 -7,3l-5,0z" id="svg_184" fill="#ffffff"/>
  </g>
  <g id="svg_185">
   <path d="m401.5,300.5c-0.8,0.7 -1.6,1.1 -2.6,1.1s-1.5,-0.6 -1.9,-1.8c-0.1,-6.5 -0.2,-13 -0.2,-19.5l-0.2,-18.6c0,-3.7 1.7,-6.3 5,-7.7c2.7,-1.2 5.8,-1.9 9.5,-1.9c1.9,0 3.9,0.5 6,1.4c2.1,0.9 4.1,2.2 5.8,4c1.7,1.8 2.6,3.7 2.6,5.7c0,2 -0.9,4.2 -2.8,6.6c-1.9,2.3 -4.2,4.4 -7,6.2c-2.8,1.8 -5.5,3.1 -8.1,4c4.6,3.2 8.6,6.6 12,10.3c3.4,3.7 5.1,6.5 5.1,8.5c0,0.6 -0.3,1.2 -1,1.8c-0.6,0.6 -1.4,0.9 -2.3,0.9c-0.9,0 -1.7,-0.4 -2.3,-1.2c-1.1,-2.6 -3.1,-5.4 -6.2,-8.3c-3,-2.9 -6.6,-5.6 -10.6,-8.3l0.4,14.2c0,1.1 -0.4,1.9 -1.2,2.6zm12,-28.7c4.1,-2.6 6.2,-5 6.2,-7.1c0,-2.1 -1,-3.7 -3.1,-4.8c-2.1,-1.1 -4.5,-1.7 -7.4,-1.7s-5.1,0.3 -6.8,1c0,2.5 -0.1,8.1 -0.1,16.7c3.4,-0.1 7.1,-1.5 11.2,-4.1z" id="svg_186" fill="#ffffff"/>
   <path d="m432,301.3c-1.4,0 -2.1,-0.6 -2.1,-1.8l0.3,-30.1c0,-0.7 0.2,-1.2 0.7,-1.7c0.5,-0.4 1.1,-0.6 1.8,-0.6c0.7,0 1.3,0.2 1.8,0.5c0.5,0.3 0.8,0.9 0.9,1.7c0,0.8 0.1,2.6 0.1,5.4c0,13.2 -0.1,21.2 -0.3,24.1c0,0.6 -0.4,1.2 -1.1,1.7c-0.7,0.6 -1.4,0.8 -2.1,0.8z" id="svg_187" fill="#ffffff"/>
   <path d="m458,267.2c2.1,0 4,0.4 5.8,1.3c1.8,0.9 2.7,2 2.7,3.3c0,0.7 -0.3,1.3 -0.8,1.8c-0.5,0.5 -1.2,0.7 -1.9,0.7s-1.6,-0.3 -2.5,-0.9c-0.9,-0.6 -2.2,-0.9 -3.7,-0.9c-3.2,0 -5.7,1.3 -7.7,3.9c-2,2.6 -3,5.5 -3,8.6c0,3.1 0.7,5.8 2.1,8c1.4,2.2 3,3.3 4.8,3.3c1.8,0 3.3,-0.5 4.5,-1.4c1.2,-1 1.7,-2.2 1.7,-3.7c0,-2.6 -0.5,-3.8 -1.4,-3.8c-2.1,0 -3.5,-0.1 -4.3,-0.4c-0.8,-0.3 -1.2,-0.9 -1.2,-1.8c0,-1.8 0.8,-2.7 2.4,-2.9c0.7,0 1.6,-0.1 2.7,-0.1s2.2,0.2 3.3,0.6c1.6,0.6 2.5,1.5 2.9,2.8c0.7,3.1 1.1,5.9 1.1,8.6c0,0.3 0,0.9 0,1.7c0,0.8 0,1.5 0,2c0,0.5 -0.1,1.1 -0.2,1.8c-0.1,0.7 -0.3,1.1 -0.7,1.4c-0.3,0.2 -0.9,0.4 -1.6,0.4c-0.8,0 -1.3,-0.2 -1.7,-0.5c-0.4,-0.3 -0.7,-0.9 -0.8,-1.7c-2.3,1.5 -4.6,2.3 -7,2.3s-4.4,-0.8 -6.3,-2.5c-1.9,-1.7 -3.3,-3.7 -4.3,-6.2c-0.9,-2.5 -1.4,-4.9 -1.4,-7.4c0,-5.5 1.6,-9.9 4.7,-13.2c3,-3.4 7,-5.1 11.8,-5.1z" id="svg_188" fill="#ffffff"/>
   <path d="m494.5,286.2l-0.1,11c0,2.8 -0.9,4.1 -2.7,4.1c-0.8,0 -1.5,-0.2 -1.9,-0.5c-0.4,-0.3 -0.6,-0.9 -0.6,-1.6c0.2,-2.6 0.3,-6.8 0.3,-12.5c-0.8,0.1 -2.1,0.1 -3.9,0.1c-1.8,0 -4.5,-0.2 -8.2,-0.6l0,1.6c0,1 0.2,4.8 0.6,11.2c0,0.8 -0.2,1.4 -0.9,1.7c-0.6,0.4 -1.2,0.6 -1.9,0.6c-0.6,0 -1.1,-0.2 -1.5,-0.6c-0.4,-0.4 -0.6,-0.8 -0.6,-1.3c-0.5,-5.1 -0.8,-9 -0.8,-11.7c0,-2.6 0,-4.4 0.1,-5.4l0.3,-12.4c0,-0.6 0.4,-1.1 1,-1.5c0.6,-0.4 1.3,-0.6 2,-0.6c1.3,0 1.9,0.5 1.9,1.6l-0.1,11.6c2.5,0.4 4.6,0.6 6.4,0.6c1.8,0 2.9,0 3.3,0l2.3,0c-0.1,-2.7 -0.2,-6.8 -0.2,-12.3c0,-0.7 0.3,-1.3 1,-1.7s1.4,-0.7 2.1,-0.7c0.8,0 1.3,0.3 1.6,1c0.3,0.7 0.4,1.4 0.4,2l0,16.3l0.1,0z" id="svg_189" fill="#ffffff"/>
   <path d="m515.6,271.6l-0.1,17.5c0,3.7 0,6.9 0.1,9.6c0,0.7 -0.3,1.3 -0.9,1.8c-0.7,0.5 -1.3,0.7 -2,0.7c-1.3,0 -1.9,-0.7 -1.9,-2.1c-0.1,-5.4 -0.2,-10.5 -0.2,-15.4c0,-4.9 0.1,-8.9 0.4,-12c-3,0.2 -6,0.4 -9,0.4c-1.5,0 -2.3,-0.6 -2.3,-1.9c0,-0.6 0.3,-1.2 0.9,-1.8c0.6,-0.6 1.2,-0.9 1.9,-1l23.1,-0.7c1.3,0.3 2,0.9 2,1.9c0,2 -2.3,3 -7,3l-5,0z" id="svg_190" fill="#ffffff"/>
  </g>
  <g id="svg_191">
   <path d="m581.7,299.8l-9.5,-0.2c-0.5,-2.1 -0.9,-11.4 -1,-28l0,-5.3c0,-4.2 0.4,-7.4 1.2,-9.6c0.8,-2.2 2.4,-4 5,-5.3c1.3,-0.6 3.1,-1 5.4,-1s4.1,0.1 5.3,0.4c3.3,0.7 5.6,2 6.8,3.8c1.2,1.9 1.8,4.4 1.8,7.5c0,4.4 -1.2,7.6 -3.5,9.7c1.2,0.1 2.4,0.7 3.6,1.8c1.2,1 2.1,2.1 2.9,3.2c1.3,2 1.9,4.7 1.9,8.1c0,5.3 -1.6,9.1 -4.8,11.4c-3.4,2.4 -8.4,3.5 -15.1,3.5zm12.1,-20.3c-0.5,-0.5 -1.3,-1 -2.3,-1.4c-1,-0.4 -2.5,-0.7 -4.5,-0.7c-1.9,0 -5.3,0.3 -10,1c0,7.7 0.1,12.9 0.4,15.6c5.8,0 9.8,-0.4 12.1,-1.1c2.3,-0.8 3.9,-1.7 4.7,-2.8c0.8,-1.1 1.2,-2.3 1.2,-3.6c0,-1.3 0,-2.1 0,-2.7c0,-0.5 -0.2,-1.2 -0.4,-2.1c-0.3,-1 -0.7,-1.7 -1.2,-2.2zm-16.7,-15.7l0.1,8.4c0.1,0 0.9,-0.1 2.5,-0.3c1.6,-0.2 2.9,-0.5 4,-0.7c5,-1.2 7.5,-4 7.5,-8.5c0,-2.2 -0.7,-3.8 -2,-4.9c-1.3,-1 -3,-1.6 -5.1,-1.6c-2.7,0 -4.5,0.5 -5.4,1.4c-0.4,0.4 -0.7,0.7 -1,1c-0.2,0.3 -0.4,0.7 -0.5,1.3c-0.1,0.6 -0.2,1 -0.2,1.3c0,0.2 0,0.7 0,1.4c0.1,0.7 0.1,1.1 0.1,1.2z" id="svg_192" fill="#ffffff"/>
   <path d="m612.7,298c-0.2,1.2 -1.1,1.9 -2.6,1.9s-2.3,-0.6 -2.3,-1.9c0,-2.9 1.4,-8.8 4.3,-17.8c1.3,-4.1 2.7,-7.5 4.3,-10.2c1.6,-2.7 3.1,-4.1 4.6,-4.1c0.8,0 1.5,0.5 2.1,1.4c0.6,0.9 1.7,3.1 3.2,6.4c1.6,3.3 2.8,6.9 3.9,10.6c1,3.7 2.2,8.3 3.4,13.7c0,0.6 -0.2,1.1 -0.7,1.5c-0.4,0.4 -1,0.6 -1.6,0.6c-1.6,0 -2.6,-0.7 -3,-2.1l-2.6,-10.1c-4.3,0 -7.8,-0.3 -10.4,-1c-1.5,5.2 -2.4,9 -2.6,11.1zm8,-25.4c-1.6,2.8 -3,5.8 -4,9.3c2.2,0.6 4.7,0.9 7.7,0.9c-0.9,-3.4 -2.2,-6.8 -3.7,-10.2z" id="svg_193" fill="#ffffff"/>
   <path d="m663.6,272.1l-6,-0.7c-8,0 -12,4 -12,12c0,4 1.2,7.3 3.6,9.6c1.2,1.2 2.4,1.9 3.7,1.9c1.3,0 3.5,-0.6 6.7,-1.7c3.2,-1.1 4.9,-1.7 5.2,-1.7c1.3,0 2,0.6 2,1.8c0,1 -0.6,1.9 -1.7,2.7c-6.2,2.6 -10.6,3.9 -13.4,3.9c-1.7,0 -3.3,-0.5 -5,-1.6c-1.6,-1.1 -2.9,-2.5 -3.8,-4.2c-1.9,-3.4 -2.9,-7.1 -2.9,-11c0,-5.2 1.6,-9.4 4.7,-12.4c3.2,-3.1 7.2,-4.6 12.1,-4.6c2.9,0 5.7,0.5 8.5,1.4l0,0.1c0.9,0.5 1.3,1.2 1.3,1.9c0,0.7 -0.4,1.3 -1.1,1.9c-0.5,0.4 -1.2,0.7 -1.9,0.7z" id="svg_194" fill="#ffffff"/>
   <path d="m675.2,293.7c0,-2.7 -0.1,-6.8 -0.4,-12.4c-0.3,-5.6 -0.5,-9.1 -0.7,-10.5c-0.2,-1.4 -0.3,-2.3 -0.3,-2.9c0,-0.5 0.3,-1 0.9,-1.5c0.6,-0.5 1.3,-0.7 2.1,-0.7c0.8,0 1.5,0.4 1.9,1.3c1,2.3 1.6,7 1.6,14.2c3.1,-2.5 5.5,-4.8 7.4,-6.8c1.9,-2 3.8,-4.4 5.7,-7.3c0.6,-1 1.5,-1.6 2.4,-1.6c1.9,0 2.8,0.6 2.8,1.9c0,2.4 -3.2,6.8 -9.5,13.3c2.7,2.5 5.3,5.6 7.7,9.3c2.4,3.7 3.6,6 3.6,7c0,0.9 -0.3,1.6 -0.8,2.1c-0.5,0.5 -1.1,0.7 -1.8,0.7c-0.7,0 -1.5,-0.6 -2.4,-1.8c-0.9,-1.2 -2,-2.8 -3.3,-4.9c-1.3,-2 -2.4,-3.7 -3.3,-4.9c-1,-1.2 -2.3,-2.5 -4,-4c-1.4,1.3 -2.9,2.4 -4.4,3.5c0.1,5.8 0.2,9 0.2,9.7c0,1.6 -1.1,2.4 -3.3,2.4c-1.5,0 -2.2,-0.8 -2.1,-2.3l0,-3.8z" id="svg_195" fill="#ffffff"/>
  </g>
  <g id="svg_196">
   <path d="m197.9,671l-9.5,-0.2c-0.5,-2.1 -0.9,-11.4 -1,-28l0,-5.3c0,-4.2 0.4,-7.4 1.2,-9.6c0.8,-2.2 2.4,-4 5,-5.3c1.3,-0.6 3.1,-1 5.4,-1s4.1,0.1 5.3,0.4c3.3,0.7 5.6,2 6.8,3.8c1.2,1.9 1.8,4.4 1.8,7.5c0,4.4 -1.2,7.6 -3.5,9.7c1.2,0.1 2.4,0.7 3.6,1.8c1.2,1 2.1,2.1 2.9,3.2c1.3,2 1.9,4.7 1.9,8.1c0,5.3 -1.6,9.1 -4.8,11.4c-3.4,2.4 -8.4,3.5 -15.1,3.5zm12.1,-20.3c-0.5,-0.5 -1.3,-1 -2.3,-1.4s-2.5,-0.7 -4.5,-0.7c-1.9,0 -5.3,0.3 -10,1c0,7.7 0.1,12.9 0.4,15.6c5.8,0 9.8,-0.4 12.1,-1.1c2.3,-0.8 3.9,-1.7 4.7,-2.8c0.8,-1.1 1.2,-2.3 1.2,-3.6c0,-1.3 0,-2.1 0,-2.7c0,-0.5 -0.2,-1.2 -0.4,-2.1c-0.3,-0.9 -0.7,-1.6 -1.2,-2.2zm-16.7,-15.7l0.1,8.4c0.1,0 0.9,-0.1 2.5,-0.3c1.6,-0.2 2.9,-0.5 4,-0.7c5,-1.2 7.5,-4 7.5,-8.5c0,-2.2 -0.7,-3.8 -2,-4.9c-1.3,-1 -3,-1.6 -5.1,-1.6c-2.7,0 -4.5,0.5 -5.4,1.4c-0.4,0.4 -0.7,0.7 -1,1c-0.2,0.3 -0.4,0.7 -0.5,1.3c-0.1,0.6 -0.2,1 -0.2,1.3c0,0.2 0,0.7 0,1.4c0.1,0.7 0.1,1.1 0.1,1.2z" id="svg_197" fill="#ffffff"/>
   <path d="m238.3,637.4c3.7,0 6.6,1.4 8.8,4.2c2.2,2.8 3.4,6.7 3.4,11.5s-1.2,9.1 -3.7,12.7c-2.5,3.6 -5.6,5.3 -9.4,5.3c-4.1,0 -7.5,-1.8 -10.1,-5.3c-2.6,-3.6 -3.9,-7.9 -3.9,-13c0,-5.1 1.4,-9 4.1,-11.5c2.6,-2.6 6.2,-3.9 10.8,-3.9zm6.9,16.6c0,-3.9 -0.6,-6.8 -1.7,-8.7s-3.1,-2.8 -6,-2.8s-5.1,0.9 -6.7,2.6c-1.6,1.8 -2.4,4.2 -2.4,7.5s0.8,6.2 2.5,9c1.7,2.8 4,4.1 7,4.1c1.7,0 3.1,-0.7 4.3,-2.1c2,-2.5 3,-5.7 3,-9.6z" id="svg_198" fill="#ffffff"/>
   <path d="m271.8,641.5l-0.1,17.5c0,3.7 0,6.9 0.1,9.6c0,0.7 -0.3,1.3 -0.9,1.8c-0.7,0.5 -1.3,0.7 -2,0.7c-1.3,0 -1.9,-0.7 -1.9,-2.1c-0.1,-5.4 -0.2,-10.5 -0.2,-15.4s0.1,-8.9 0.4,-12c-3,0.2 -6,0.4 -9,0.4c-1.5,0 -2.3,-0.6 -2.3,-1.9c0,-0.6 0.3,-1.2 0.9,-1.8c0.6,-0.6 1.2,-0.9 1.9,-1l23.1,-0.7c1.3,0.3 2,0.9 2,1.9c0,2 -2.3,3 -7,3l-5,0z" id="svg_199" fill="#ffffff"/>
   <path d="m303.6,641.5l-0.1,17.5c0,3.7 0,6.9 0.1,9.6c0,0.7 -0.3,1.3 -0.9,1.8c-0.7,0.5 -1.3,0.7 -2,0.7c-1.3,0 -1.9,-0.7 -1.9,-2.1c-0.1,-5.4 -0.2,-10.5 -0.2,-15.4s0.1,-8.9 0.4,-12c-3,0.2 -6,0.4 -9,0.4c-1.5,0 -2.3,-0.6 -2.3,-1.9c0,-0.6 0.3,-1.2 0.9,-1.8c0.6,-0.6 1.2,-0.9 1.9,-1l23.1,-0.7c1.3,0.3 2,0.9 2,1.9c0,2 -2.3,3 -7,3l-5,0z" id="svg_200" fill="#ffffff"/>
   <path d="m335.2,637.4c3.7,0 6.6,1.4 8.8,4.2c2.2,2.8 3.4,6.7 3.4,11.5s-1.2,9.1 -3.7,12.7c-2.5,3.6 -5.6,5.3 -9.4,5.3c-4.1,0 -7.5,-1.8 -10.1,-5.3c-2.6,-3.6 -3.9,-7.9 -3.9,-13c0,-5.1 1.4,-9 4.1,-11.5c2.7,-2.6 6.3,-3.9 10.8,-3.9zm6.9,16.6c0,-3.9 -0.6,-6.8 -1.7,-8.7s-3.1,-2.8 -6,-2.8s-5.1,0.9 -6.7,2.6c-1.6,1.8 -2.4,4.2 -2.4,7.5s0.8,6.2 2.5,9c1.7,2.8 4,4.1 7,4.1c1.7,0 3.1,-0.7 4.3,-2.1c2,-2.5 3,-5.7 3,-9.6z" id="svg_201" fill="#ffffff"/>
   <path d="m381.5,635.3c1.4,0 2.1,0.7 2.1,2.1c0.1,8.8 0.2,19 0.2,30.7c0,0.8 -0.3,1.5 -0.9,2.1c-0.6,0.6 -1.5,1 -2.7,1c-1.2,0 -1.8,-0.8 -1.8,-2.4c0,-5.2 0,-9.1 -0.1,-11.7c-0.1,-2.5 -0.1,-5.3 -0.1,-8.3c-1.8,2.2 -3.6,3.8 -5.3,4.7c-1.7,0.9 -4,1.3 -6.8,1.3c-2.8,0 -5,-0.8 -6.6,-2.3c0,8.8 0,14 -0.1,15.5c-0.1,2.1 -1.3,3.1 -3.5,3.1c-1.3,0 -2,-0.7 -2,-2.1l0.2,-13.7c0,-4.4 0,-7.9 0,-10.4l0,-4.1c0,-0.7 0.3,-1.4 0.8,-2c0.5,-0.6 1.2,-1 1.9,-1c0.7,0 1.4,0.2 1.9,0.5c0.6,0.3 0.9,0.8 0.9,1.4c0.1,2.5 0.8,4.8 2.2,6.7c1.4,2 2.9,3 4.6,3c5,0 8.4,-2.7 10.4,-8.1c0.1,-0.2 0.3,-0.9 0.6,-1.9c0.3,-1 0.6,-1.8 0.8,-2.1c0.2,-0.4 0.6,-0.8 1.1,-1.3c0.8,-0.5 1.5,-0.7 2.2,-0.7z" id="svg_202" fill="#ffffff"/>
  </g>
  <g id="svg_203">
   <path d="m224.1,252l8.2,-0.1c3.7,0 5.5,1 5.5,2.9c0,0.7 -0.1,1.2 -0.3,1.4c-0.2,0.3 -0.3,0.5 -0.4,0.6c-0.1,0.1 -0.3,0.3 -0.6,0.4c-0.6,0.2 -1.1,0.3 -1.5,0.4c-0.4,0 -0.7,0.1 -0.8,0.1c-0.5,0.1 -1.5,0.2 -2.7,0.2c-1.3,0 -3.1,0.1 -5.6,0.1c-2.4,0 -5.4,-0.1 -9,-0.3l0,13.6l15.1,0c0.5,0 1,0.2 1.5,0.7c0.5,0.5 0.7,1 0.7,1.6c0,2.3 -1,3.4 -2.9,3.4l-14.4,0l0.3,19.4c0,2.5 -0.9,3.8 -2.6,3.8c-1.7,0 -2.7,-1.1 -3,-3.4c-0.1,-0.7 -0.2,-7 -0.3,-18.8c0,-11.8 -0.1,-18.6 -0.2,-20.4c-1.8,0.2 -2.7,-0.8 -2.7,-3.1c0,-0.6 0.2,-1.2 0.7,-2c0.5,-0.7 0.9,-1.1 1.3,-1.1c0.4,0 0.8,-0.1 1.4,-0.1c0.6,0 2,0.1 4.2,0.3c3.1,0.3 5.8,0.4 8.1,0.4z" id="svg_204" fill="#ffffff"/>
   <path d="m244.8,297.2c0,0.7 -0.3,1.4 -1,1.9c-0.7,0.5 -1.5,0.8 -2.3,0.8c-1.1,0 -1.6,-0.5 -1.6,-1.5c-0.2,-2.3 -0.3,-11.5 -0.3,-27.6c0,-1.6 0.9,-2.8 2.8,-3.7c1.9,-0.9 4.4,-1.3 7.6,-1.3s6,0.8 8.4,2.4c2.4,1.6 3.6,3.5 3.6,5.7c0,1.1 -0.5,2.3 -1.4,3.6c-0.9,1.3 -1.9,2.4 -3,3.1c-1.1,0.8 -2.6,1.7 -4.6,2.8c-2,1.1 -3.2,1.7 -3.6,1.8c3.1,2 5.9,4.1 8.3,6.4c2.4,2.3 3.6,4.1 3.6,5.5s-0.6,2.2 -1.8,2.6c-0.3,0.1 -0.8,0.1 -1.3,0.1c-0.5,0 -1.2,-0.5 -2.1,-1.6c-0.8,-1.1 -2.4,-2.6 -4.7,-4.6c-2.3,-2 -4.6,-3.8 -6.9,-5.4c0.1,4.1 0.2,7 0.3,9l0,0zm-0.3,-15.4c1.6,0 4.1,-0.8 7.3,-2.4c3.3,-1.6 5,-3.1 5.1,-4.5c0,-1.3 -0.7,-2.3 -2.2,-3s-3,-1 -4.7,-1c-1.9,0 -3.7,0.2 -5.5,0.7c0,2.3 0,5.7 0,10.2z" id="svg_205" fill="#ffffff"/>
   <path d="m283.4,266.1c3.7,0 6.6,1.4 8.8,4.2c2.2,2.8 3.4,6.7 3.4,11.5c0,4.9 -1.2,9.1 -3.7,12.7c-2.5,3.6 -5.6,5.3 -9.4,5.3c-4.1,0 -7.5,-1.8 -10.1,-5.3c-2.6,-3.6 -3.9,-7.9 -3.9,-13c0,-5.1 1.4,-9 4.1,-11.5c2.7,-2.6 6.3,-3.9 10.8,-3.9zm6.9,16.6c0,-3.9 -0.6,-6.8 -1.7,-8.7s-3.1,-2.8 -6,-2.8s-5.1,0.9 -6.7,2.6c-1.6,1.8 -2.4,4.2 -2.4,7.5c0,3.2 0.8,6.2 2.5,9c1.7,2.8 4,4.1 7,4.1c1.7,0 3.1,-0.7 4.3,-2.1c2,-2.4 3,-5.6 3,-9.6z" id="svg_206" fill="#ffffff"/>
   <path d="m307.7,276.9l-0.8,18c0,1.6 -0.1,2.6 -0.1,3.2c-0.2,1.3 -1.1,2 -2.6,2c-0.6,0 -1.1,-0.2 -1.6,-0.6c-0.5,-0.4 -0.7,-0.9 -0.8,-1.6c0.4,-12.8 0.6,-19.7 0.6,-20.8c0,-1 0,-2.1 0,-3.4c0,-1.2 0.1,-2.3 0.4,-3.3c0.3,-1.3 1.2,-2 2.7,-2c0.7,0 1.6,0.5 2.6,1.4c1,0.9 2.5,2.7 4.5,5.2c4.7,5.8 8.2,11.2 10.7,16.4c-0.1,-7 -0.3,-12.3 -0.5,-16c-0.2,-3.7 -0.4,-5.7 -0.4,-6c0,-0.3 0,-0.5 0,-0.6c0.3,-1.9 1.4,-2.8 3,-2.8c0.6,0 1.2,0.3 1.8,0.9c0.5,0.6 0.8,1.3 0.8,2.1l0.4,27.5c0,2.6 -1,3.8 -3.1,3.8c-1.2,0 -2.2,-0.4 -2.9,-1.3c-0.7,-0.9 -1.2,-1.5 -1.5,-2c-0.3,-0.5 -0.7,-1.3 -1.3,-2.4c-3.9,-7.3 -7.8,-13.1 -11.9,-17.7z" id="svg_207" fill="#ffffff"/>
   <path d="m349.5,270.3l-0.1,17.5c0,3.7 0,6.9 0.1,9.6c0,0.7 -0.3,1.3 -0.9,1.8c-0.7,0.5 -1.3,0.7 -2,0.7c-1.3,0 -1.9,-0.7 -1.9,-2.1c-0.1,-5.4 -0.2,-10.5 -0.2,-15.4c0,-4.9 0.1,-8.9 0.4,-12c-3,0.2 -6,0.4 -9,0.4c-1.5,0 -2.3,-0.6 -2.3,-1.9c0,-0.6 0.3,-1.2 0.9,-1.8c0.6,-0.6 1.2,-0.9 1.9,-1l23.1,-0.7c1.3,0.3 2,0.9 2,1.9c0,2 -2.3,3 -7,3l-5,0z" id="svg_208" fill="#ffffff"/>
  </g>
 </g>
</svg>